<svg width="122" height="27" viewBox="0 0 122 27" fill="none" xmlns="http://www.w3.org/2000/svg">
<g id="Group 37">
<path id="Fill 4" fill-rule="evenodd" clip-rule="evenodd" d="M111.34 5.26523C112.478 4.5299 113.948 4.46145 115.231 4.81182C115.242 5.56849 115.233 6.3259 115.237 7.08331C114.627 6.81685 113.91 6.64314 113.268 6.90445C112.76 7.10466 112.457 7.62284 112.378 8.14103C112.282 8.79834 112.344 9.46448 112.328 10.1255C113.63 10.1284 114.932 10.1262 116.235 10.1269C116.244 9.28782 116.224 8.44797 116.246 7.60886C117.131 7.3586 118.007 7.07816 118.888 6.81465C118.895 7.92021 118.878 9.02652 118.898 10.1328C119.778 10.1203 120.659 10.1299 121.54 10.1269V12.2792C120.656 12.2431 119.771 12.2696 118.887 12.2667C118.891 13.504 118.888 14.7413 118.889 15.9794C118.903 16.6647 118.852 17.3536 118.932 18.0367C118.981 18.4393 119.129 18.8854 119.509 19.0937C120.146 19.4477 120.955 19.2931 121.54 18.9045V21.0781C120.777 21.4071 119.924 21.5072 119.098 21.4491C118.315 21.3917 117.504 21.109 116.993 20.4907C116.403 19.7922 116.251 18.8463 116.239 17.9616C116.232 16.0626 116.24 14.1635 116.236 12.2637C114.933 12.263 113.63 12.2623 112.328 12.2645C112.327 15.2448 112.327 18.2251 112.327 21.2054C111.438 21.2054 110.547 21.2054 109.657 21.2054C109.657 18.2258 109.653 15.247 109.659 12.2674C109.039 12.2556 108.42 12.2704 107.8 12.2578C107.803 11.5505 107.806 10.8424 107.799 10.1343C108.415 10.1203 109.032 10.1262 109.65 10.1306C109.695 9.18992 109.55 8.222 109.834 7.3056C110.073 6.47826 110.606 5.7319 111.34 5.26523" fill="#666666"/>
<path id="Fill 5" fill-rule="evenodd" clip-rule="evenodd" d="M54.1678 5.42013C54.7061 5.33916 55.289 5.52171 55.6457 5.93979C56.0639 6.39762 56.141 7.12632 55.831 7.66144C55.4885 8.26502 54.7217 8.54546 54.0536 8.40045C53.3602 8.27679 52.7826 7.63715 52.8137 6.92391C52.7937 6.17312 53.4262 5.50404 54.1678 5.42013" fill="#666666"/>
<path id="Fill 6" fill-rule="evenodd" clip-rule="evenodd" d="M33.704 5.74759C34.9987 5.74759 36.2927 5.74759 37.5875 5.74759C38.7962 8.79416 40.0138 11.8378 41.224 14.8844C41.5332 15.6462 41.8224 16.4168 42.1465 17.1728C43.7015 13.3659 45.2788 9.5685 46.8219 5.75642C48.067 5.73655 49.3128 5.75201 50.5586 5.74906C50.5556 10.9008 50.5571 16.0525 50.5578 21.2042C49.6591 21.202 48.7611 21.2116 47.863 21.199C47.8727 17.3973 47.8623 13.5955 47.8675 9.793C47.869 9.62223 47.863 9.45147 47.8512 9.2807C47.7985 9.36019 47.7518 9.44263 47.711 9.52802C46.1679 13.4196 44.5951 17.3001 43.0608 21.1954C42.4216 21.2182 41.7816 21.1968 41.1417 21.2071C39.5496 17.3156 37.9775 13.4152 36.3936 9.52066C36.352 9.43969 36.3075 9.36093 36.2593 9.28511C36.2267 10.9508 36.2542 12.618 36.2453 14.2837C36.246 16.5905 36.2438 18.8974 36.246 21.2042C35.3984 21.2064 34.5508 21.2042 33.704 21.2049C33.7032 16.0525 33.7025 10.9 33.704 5.74759" fill="#666666"/>
<path id="Fill 7" fill-rule="evenodd" clip-rule="evenodd" d="M61.5155 10.1169C62.8043 9.7526 64.194 9.76732 65.482 10.1287C65.7475 10.2023 66.0048 10.3046 66.2436 10.4438C66.2288 11.288 66.2436 12.133 66.2354 12.978C65.3745 12.3251 64.2822 11.9115 63.1877 12.0484C62.3186 12.1264 61.4895 12.5739 60.9697 13.271C60.3016 14.1351 60.1474 15.2826 60.2623 16.3396C60.3483 17.167 60.6931 17.9936 61.3412 18.5419C62.0146 19.1359 62.9585 19.3465 63.8395 19.2802C64.7101 19.1808 65.5317 18.815 66.2354 18.3042C66.2428 19.1043 66.2317 19.9044 66.2414 20.7045C65.1498 21.3493 63.841 21.5156 62.5915 21.4545C61.3131 21.3876 60.0383 20.9069 59.1129 20.0148C58.1074 19.0528 57.5616 17.6807 57.4971 16.3065C57.4318 14.8778 57.7247 13.3873 58.553 12.1941C59.2471 11.1761 60.3327 10.4555 61.5155 10.1169" fill="#666666"/>
<path id="Fill 9" fill-rule="evenodd" clip-rule="evenodd" d="M90.6844 9.94818C91.9191 9.73252 93.2116 9.89077 94.3803 10.3302C94.3818 11.1428 94.3803 11.9547 94.381 12.7666C93.5646 12.2094 92.5672 11.9098 91.5765 11.9444C91.0775 11.9635 90.5287 12.1733 90.3011 12.6444C90.1201 13.1103 90.2455 13.7212 90.6882 14.0002C91.4453 14.5029 92.3485 14.7164 93.133 15.1669C93.7507 15.5114 94.3499 15.9618 94.6628 16.611C95.2509 17.827 95.0017 19.4338 93.968 20.3407C92.981 21.2563 91.5595 21.5095 90.2521 21.461C89.3237 21.4013 88.3908 21.2195 87.5373 20.8427C87.541 19.9881 87.5321 19.1343 87.5418 18.2804C88.2596 18.7979 89.0879 19.1681 89.9644 19.3183C90.5747 19.4169 91.2384 19.4213 91.8071 19.1505C92.3514 18.8818 92.4493 18.1141 92.126 17.6445C91.8235 17.2823 91.3793 17.0829 90.9603 16.8871C90.1735 16.536 89.3467 16.2423 88.6556 15.716C88.1699 15.3399 87.8021 14.8099 87.6582 14.2122C87.4446 13.3311 87.5114 12.3382 88.0275 11.5683C88.617 10.671 89.6411 10.1329 90.6844 9.94818" fill="#666666"/>
<path id="Fill 11" fill-rule="evenodd" clip-rule="evenodd" d="M72.2152 10.2972C72.9523 9.85778 73.8888 9.82098 74.6934 10.0896C74.6897 10.9737 74.6934 11.8577 74.6912 12.7417C74.1647 12.4031 73.5077 12.2581 72.8863 12.3207C72.1284 12.406 71.5277 12.9838 71.2163 13.6463C70.8781 14.3478 70.8144 15.1412 70.8359 15.9082C70.8359 17.674 70.8366 19.4399 70.8359 21.2057C69.9579 21.2057 69.0806 21.2057 68.2034 21.2057C68.2012 17.5151 68.2064 13.8237 68.2012 10.1331C69.0799 10.122 69.9586 10.1264 70.8374 10.1309C70.8337 10.7646 70.8374 11.3984 70.8351 12.0329C71.1206 11.3432 71.5455 10.6733 72.2152 10.2972" fill="#666666"/>
<path id="Fill 12" fill-rule="evenodd" clip-rule="evenodd" d="M53.0566 10.1306C53.942 10.1269 54.8282 10.1181 55.7136 10.135C55.7032 13.8249 55.7129 17.5155 55.7091 21.2054C54.8252 21.2054 53.9413 21.2054 53.0581 21.2054C53.0559 17.5141 53.0589 13.8227 53.0566 10.1306" fill="#666666"/>
<path id="Subtract" fill-rule="evenodd" clip-rule="evenodd" d="M83.4314 10.3734C82.242 9.83611 80.8902 9.76398 79.6088 9.92591C78.2629 10.0945 76.9526 10.7231 76.0983 11.7882C75.3182 12.7391 74.9385 13.961 74.8659 15.1733C74.7583 16.602 74.9986 18.1183 75.8439 19.3107C76.564 20.3397 77.7008 21.0471 78.9288 21.3077C79.9551 21.5219 81.0288 21.5226 82.0551 21.3106C83.2557 21.0655 84.3769 20.406 85.1207 19.4329C85.8474 18.5165 86.2122 17.3609 86.2945 16.2075C86.3783 15.0261 86.2582 13.8028 85.7636 12.7134C85.3001 11.6903 84.4637 10.8357 83.4314 10.3734ZM82.6384 12.782C82.0615 12.2028 81.2072 11.9775 80.4049 12.0298C79.7664 12.0651 79.1213 12.2793 78.6482 12.718C77.9956 13.3046 77.6975 14.1791 77.6167 15.0292C77.5277 15.964 77.5922 16.9496 78.0223 17.802C78.3567 18.4637 78.9715 18.9834 79.696 19.1725C80.4079 19.3558 81.1828 19.3404 81.8724 19.0776C82.4619 18.8494 82.9291 18.368 83.1842 17.7983C83.5698 16.9533 83.6076 16.0031 83.5602 15.0911C83.4942 14.2578 83.2554 13.3841 82.6384 12.782Z" fill="#666666"/>
<path id="Subtract_2" fill-rule="evenodd" clip-rule="evenodd" d="M104.855 10.4565C103.639 9.847 102.224 9.75793 100.892 9.92207C99.817 10.059 98.7611 10.4638 97.9409 11.1785C96.9398 12.0346 96.3525 13.2932 96.1798 14.5806C96.0151 15.868 96.0708 17.2238 96.5995 18.4288C97.1067 19.6109 98.1078 20.5707 99.3121 21.0411C100.501 21.5055 101.822 21.5578 103.073 21.3568C104.352 21.147 105.564 20.4794 106.356 19.4519C107.202 18.3905 107.566 17.017 107.564 15.6788C107.583 14.783 107.47 13.8747 107.149 13.0334C106.738 11.9337 105.916 10.9827 104.855 10.4565ZM103.751 12.6578C103.171 12.1521 102.366 11.9791 101.612 12.0314C100.873 12.0726 100.141 12.3884 99.663 12.9596C99.1395 13.5712 98.9148 14.3787 98.854 15.1656C98.7909 15.9782 98.854 16.8195 99.1706 17.5791C99.4339 18.2165 99.9337 18.7708 100.579 19.0417C101.176 19.2971 101.85 19.3427 102.489 19.2478C103.084 19.1609 103.661 18.8783 104.049 18.4145C104.434 17.953 104.637 17.3715 104.74 16.7886C104.869 16.0061 104.87 15.2001 104.717 14.4214C104.582 13.7575 104.286 13.098 103.751 12.6578Z" fill="#666666"/>
<path id="Path" fill-rule="evenodd" clip-rule="evenodd" d="M0 0.595703H12.3467C12.346 4.68086 12.3467 8.76601 12.346 12.8512C8.23115 12.8512 4.11557 12.8512 0 12.8512V0.595703" fill="#F35326"/>
<path id="Fill 3" fill-rule="evenodd" clip-rule="evenodd" d="M13.6076 0.595703H25.9543C25.9543 4.68086 25.9551 8.76601 25.9536 12.8512C21.8388 12.8504 17.7232 12.8512 13.6083 12.8512C13.6069 8.76601 13.6076 4.68086 13.6076 0.595703" fill="#82BC06"/>
<path id="Fill 16" fill-rule="evenodd" clip-rule="evenodd" d="M0 14.1016C4.11557 14.103 8.23115 14.1008 12.3467 14.103C12.3475 18.1882 12.3467 22.2726 12.3467 26.3578H0V14.1016" fill="#05A6F0"/>
<path id="Fill 17" fill-rule="evenodd" clip-rule="evenodd" d="M13.6082 14.1035C17.723 14.102 21.8386 14.1027 25.9541 14.1027C25.9541 18.1879 25.9541 22.273 25.9541 26.3582H13.6074C13.6082 22.273 13.6067 18.1879 13.6082 14.1035" fill="#FFBA08"/>
</g>
</svg>
