<svg width="62" height="64" viewBox="0 0 62 64" fill="none" xmlns="http://www.w3.org/2000/svg">
<g id="peta-logo 1" clip-path="url(#clip0_331_8476)">
<path id="Ellipse_2" d="M31 63.6495C48.1208 63.6495 62 49.5344 62 32.1226C62 14.7108 48.1208 0.595703 31 0.595703C13.8792 0.595703 0 14.7108 0 32.1226C0 49.5344 13.8792 63.6495 31 63.6495Z" fill="#2375C9"/>
<g id="Group_14">
<path id="Path_5" d="M15.7051 23.5111H10.9564L6.1543 41.6417H10.156L12.0768 34.5939L11.8634 35.5085C14.5312 35.7237 20.4538 35.7775 21.3075 29.1601C22.1612 22.8117 15.7051 23.5111 15.7051 23.5111ZM16.1319 31.0969C14.798 32.3881 12.8772 31.9039 12.8772 31.9039L13.4108 29.8595L14.1577 27.1695C14.4245 27.1695 16.3987 26.9543 16.9323 27.3847C17.4658 27.9227 17.039 30.2361 16.1319 31.0969Z" fill="white"/>
<path id="Path_6" d="M33.3654 24.9095C33.0453 24.4253 32.5651 23.9949 32.0315 23.8335C28.5634 22.7037 25.7888 25.3399 23.8147 27.8685C21.8405 30.5586 20.72 33.7866 20.6133 37.1222C20.72 39.1128 21.2002 41.3186 23.1744 42.0718C26.4291 42.8788 28.8835 40.0812 30.6443 37.7678C30.8577 37.445 31.1778 37.176 31.1778 36.7456C31.0178 36.6918 30.911 36.5304 30.751 36.5304C30.3775 37.0684 29.9506 37.6064 29.5238 38.1444C28.4033 39.2742 26.9627 40.135 25.3086 39.7584C23.4945 38.9514 23.4412 36.7994 23.6012 34.9164C23.7079 34.217 23.868 33.5176 24.0814 32.8182L25.3086 32.4416C28.0298 31.527 31.2312 31.3656 33.0453 28.5679C33.5789 27.6533 34.1124 26.0393 33.3654 24.9095ZM27.2828 30.989C23.6012 32.2264 24.5083 31.6884 24.5083 31.6884C24.5083 31.6884 27.3362 23.1879 30.2174 24.1563C33.152 25.1785 31.0178 29.8054 27.2828 30.989Z" fill="white"/>
<path id="Path_7" d="M35.4472 23.6183L47.2923 23.5107L46.2785 27.4382L42.3835 27.492L38.4351 41.6414H34.1133L37.9016 27.492H34.3267L35.4472 23.6183Z" fill="white"/>
<path id="Path_8" d="M50.7609 23.5645L42.1172 41.6414H46.5991L47.9864 38.6824H51.9881V41.6414H55.8831V23.5107L50.7609 23.5645ZM49.5337 35.0778L51.8814 29.913V29.8592V35.0778H49.5337Z" fill="white"/>
</g>
</g>
<defs>
<clipPath id="clip0_331_8476">
<rect width="62" height="63" fill="white" transform="translate(0 0.595703)"/>
</clipPath>
</defs>
</svg>
