<svg width="114" height="36" viewBox="0 0 114 36" fill="none" xmlns="http://www.w3.org/2000/svg">
<path id="airbnb" fill-rule="evenodd" clip-rule="evenodd" d="M59.9882 9.44689C59.9882 10.7162 58.9572 11.7386 57.6773 11.7386C56.3974 11.7386 55.3654 10.7162 55.3654 9.44689C55.3654 8.1776 56.3612 7.1552 57.6773 7.1552C58.9923 7.19004 59.9882 8.21244 59.9882 9.44689ZM50.4581 14.0659C50.4581 14.278 50.4581 14.6304 50.4581 14.6304C50.4581 14.6304 49.3558 13.2197 47.0098 13.2197C43.1339 13.2197 40.1113 16.1466 40.1113 20.2013C40.1113 24.2212 43.0978 27.1839 47.0098 27.1839C49.392 27.1839 50.4581 25.7374 50.4581 25.7374V26.3377C50.4581 26.6195 50.6719 26.8315 50.956 26.8315H53.836V13.5721C53.836 13.5721 51.2049 13.5721 50.956 13.5721C50.6719 13.5721 50.4581 13.819 50.4581 14.0659ZM50.458 22.5648C49.925 23.3403 48.8579 24.0103 47.578 24.0103C45.3022 24.0103 43.5605 22.5996 43.5605 20.2014C43.5605 17.8042 45.3022 16.3936 47.578 16.3936C48.8228 16.3936 49.9601 17.0984 50.458 17.8391V22.5648ZM55.9707 13.5723H59.3838V26.8307H55.9707V13.5723ZM106.96 13.2203C104.614 13.2203 103.512 14.631 103.512 14.631V7.19043H100.098V26.8321C100.098 26.8321 102.729 26.8321 102.978 26.8321C103.262 26.8321 103.476 26.5842 103.476 26.3383V25.738C103.476 25.738 104.578 27.1845 106.925 27.1845C110.801 27.1845 113.823 24.2218 113.823 20.2019C113.823 16.182 110.801 13.2203 106.96 13.2203ZM106.392 23.9741C105.076 23.9741 104.045 23.3042 103.512 22.5286V17.8039C104.045 17.0981 105.182 16.3584 106.392 16.3584C108.668 16.3584 110.409 17.7681 110.409 20.1663C110.409 22.5645 108.668 23.9741 106.392 23.9741ZM98.3199 18.9679V26.8663H94.9068V19.3551C94.9068 17.169 94.195 16.2879 92.2746 16.2879C91.2437 16.2879 90.1776 16.8165 89.502 17.5921V26.8315H86.0879V13.5721H88.7903C89.0754 13.5721 89.2882 13.819 89.2882 14.0659V14.6304C90.284 13.608 91.5991 13.2197 92.9151 13.2197C94.4088 13.2197 95.6526 13.6428 96.6484 14.489C97.8581 15.4766 98.3199 16.7459 98.3199 18.9679ZM77.8018 13.2203C75.4548 13.2203 74.3526 14.631 74.3526 14.631V7.19043H70.9395V26.8321C70.9395 26.8321 73.5706 26.8321 73.8195 26.8321C74.1036 26.8321 74.3174 26.5842 74.3174 26.3383V25.738C74.3174 25.738 75.4197 27.1845 77.7667 27.1845C81.6425 27.1845 84.6652 24.2218 84.6652 20.2019C84.7003 16.182 81.6777 13.2203 77.8018 13.2203ZM77.2336 23.9741C75.9185 23.9741 74.8876 23.3042 74.3535 22.5286V17.8039C74.8876 17.0981 76.0249 16.3584 77.2336 16.3584C79.5093 16.3584 81.252 17.7681 81.252 20.1663C81.252 22.5645 79.5093 23.9741 77.2336 23.9741ZM67.9894 13.2197C69.0204 13.2197 69.5544 13.3959 69.5544 13.3959V16.5348C69.5544 16.5348 66.7095 15.5821 64.9317 17.5921V26.8663H61.5176V13.5721C61.5176 13.5721 64.1487 13.5721 64.3976 13.5721C64.6827 13.5721 64.8955 13.819 64.8955 14.0659V14.6304C65.536 13.8897 66.9223 13.2197 67.9894 13.2197ZM32.5378 25.6321C32.3601 25.209 32.1824 24.7511 32.0047 24.3628C31.7206 23.7287 31.4355 23.1284 31.1866 22.5649L31.1515 22.5291C28.698 17.2398 26.0659 11.8799 23.2933 6.59074L23.1859 6.37869C22.9018 5.85007 22.6177 5.28561 22.3326 4.72214C21.9772 4.087 21.6219 3.41701 21.0527 2.78187C19.9153 1.37221 18.279 0.595703 16.5373 0.595703C14.7595 0.595703 13.1594 1.37221 11.9859 2.71218C11.4518 3.34633 11.0613 4.01632 10.706 4.65146C10.4209 5.21493 10.1368 5.77939 9.85268 6.30901L9.74526 6.52006C7.00775 11.8093 4.34051 17.1692 1.88709 22.4584L1.85196 22.5291C1.603 23.0935 1.31791 23.6928 1.03382 24.328C0.856133 24.7152 0.678451 25.1383 0.500769 25.5973C0.037992 26.9014 -0.103551 28.1358 0.0741307 29.4051C0.46463 32.0502 2.24246 34.2712 4.69588 35.2588C5.62043 35.647 6.58111 35.8233 7.57593 35.8233C7.86103 35.8233 8.21639 35.7874 8.50048 35.7526C9.67399 35.6112 10.8836 35.224 12.0571 34.554C13.5147 33.7426 14.9011 32.5789 16.4661 30.8865C18.0301 32.5789 19.4525 33.7426 20.875 34.554C22.0485 35.224 23.2571 35.6112 24.4306 35.7526C24.7147 35.7874 25.0711 35.8233 25.3552 35.8233C26.351 35.8233 27.3468 35.647 28.2353 35.2588C30.7248 34.2712 32.4665 32.0144 32.858 29.4051C33.1421 28.1707 33.0005 26.9372 32.5378 25.6321ZM16.502 27.4658C14.5816 25.0676 13.3378 22.8118 12.9112 20.9073C12.7335 20.096 12.6974 19.3911 12.8038 18.756C12.875 18.1925 13.0889 17.6978 13.373 17.2757C14.0485 16.3229 15.1869 15.7236 16.502 15.7236C17.818 15.7236 18.9915 16.2881 19.631 17.2757C19.9161 17.6978 20.1289 18.1925 20.2002 18.756C20.3066 19.3911 20.2714 20.1308 20.0938 20.9073C19.6671 22.7759 18.4223 25.0328 16.502 27.4658ZM30.6878 29.123C30.4388 30.9568 29.1951 32.5436 27.4524 33.2485C26.5991 33.6009 25.6745 33.7074 24.75 33.6009C23.8606 33.4953 22.9722 33.2136 22.0476 32.684C20.7677 31.9792 19.4878 30.8861 17.9941 29.2644C20.3411 26.4072 21.7635 23.798 22.2966 21.4714C22.5455 20.3783 22.5807 19.3908 22.4743 18.4739C22.3317 17.5919 22.0115 16.7815 21.5146 16.0757C20.4123 14.4888 18.5632 13.572 16.5003 13.572C14.4384 13.572 12.5893 14.5247 11.4871 16.0757C10.9892 16.7815 10.6689 17.5919 10.5274 18.4739C10.3848 19.3908 10.42 20.4132 10.7051 21.4714C11.2381 23.798 12.6957 26.4431 15.0076 29.2992C13.549 30.9209 12.2339 32.014 10.954 32.7198C10.0295 33.2485 9.14005 33.5312 8.25164 33.6367C7.29096 33.7422 6.36641 33.6009 5.54927 33.2843C3.80658 32.5785 2.5618 30.9916 2.31284 29.1579C2.20643 28.2768 2.27771 27.3948 2.63307 26.4072C2.74048 26.0548 2.91716 25.7024 3.09585 25.2793C3.3448 24.7148 3.62889 24.1155 3.91299 23.5162L3.94912 23.4455C6.40254 18.1922 9.03365 12.8313 11.7712 7.61276L11.8786 7.40171C12.1627 6.87209 12.4468 6.30862 12.7318 5.77901C13.0159 5.21454 13.3362 4.68592 13.7267 4.22798C14.4735 3.38179 15.4694 2.92285 16.5716 2.92285C17.6738 2.92285 18.6696 3.38179 19.4165 4.22798C19.807 4.68592 20.1272 5.21454 20.4123 5.77901C20.6964 6.30862 20.9805 6.87209 21.2656 7.40171L21.372 7.61276C24.0744 12.8671 26.7055 18.227 29.1589 23.4814V23.5162C29.443 24.0807 29.692 24.7148 29.9771 25.2793C30.1547 25.7024 30.3324 26.0548 30.4388 26.4072C30.7239 27.3241 30.8303 28.2061 30.6878 29.123Z" fill="#FF385C"/>
</svg>
