<svg width="123" height="19" viewBox="0 0 123 19" fill="none" xmlns="http://www.w3.org/2000/svg">
<path id="samsung" fill-rule="evenodd" clip-rule="evenodd" d="M116.87 8.62879V11.0649H118.066V13.68C118.066 14.9576 116.965 14.9819 116.965 14.9819C115.625 14.9819 115.676 13.7672 115.676 13.7672V4.7217C115.676 3.78909 116.865 3.7398 116.865 3.7398C118.006 3.7398 118.014 4.85135 118.014 4.85135V6.22676H122.408C122.552 3.54267 122.012 2.89212 122.012 2.89212C120.923 0.464303 116.799 0.596991 116.799 0.596991C110.461 0.596991 111.164 5.41926 111.164 5.41926V14.1653C111.298 18.6317 117.39 18.24 117.643 18.2237L117.65 18.2233C120.428 17.9185 121.268 17.0443 121.268 17.0443C122.04 16.4756 122.239 15.6878 122.239 15.6878C122.459 15.2291 122.515 13.7672 122.515 13.7672V8.62879H116.87ZM67.1826 8.85661C67.1826 8.85661 65.9898 8.12493 65.252 7.84287C65.252 7.84287 62.9713 6.79426 62.518 6.29535C62.518 6.29535 61.6303 5.46434 62.1502 4.49913C62.1502 4.49913 62.3681 3.86754 63.307 3.86754C63.307 3.86754 64.5303 3.93426 64.5303 4.93132V6.33857H68.9143L68.9074 4.26636C68.9074 4.26636 69.2438 0.874094 63.7428 0.724725C63.7428 0.724725 59.4161 0.442668 58.1752 2.75372C58.1752 2.75372 57.689 3.26855 57.689 5.06476V6.36207C57.689 6.36207 57.6393 7.8588 58.41 8.82249C58.41 8.82249 58.8458 9.4556 59.92 10.1524C59.92 10.1524 62.099 11.317 63.4071 11.9835C63.4071 11.9835 64.7283 12.7311 64.554 13.92C64.554 13.92 64.4477 15.1407 63.1709 15.0914C63.1709 15.0914 62.0049 15.0384 62.0049 13.8419V12.4362H57.3342V14.4788C57.3342 14.4788 57.2027 18.3836 63.2061 18.3836C63.2061 18.3836 68.9411 18.4989 69.2094 14.3749V12.7129C69.2094 12.7129 69.4113 10.1865 67.1826 8.85661ZM44.7374 1.20996L43.2695 10.3328H42.9262L41.524 1.29185H34.2002L33.834 17.8111H38.1698L38.2218 5.36424H38.5628L40.8603 17.8096H45.4225L47.6925 5.36879H47.9945L48.0992 17.8111H52.4572L51.9885 1.20996H44.7374ZM16.043 17.7938L18.9284 1.27832H26.295L29.1789 17.7938H24.512L22.8032 4.98828H22.4194L20.7106 17.7938H16.043ZM102.111 11.3171H102.302L101.99 1.21387H106.387V17.815H101.211L96.5911 7.71407H96.3984L96.6576 17.815H92.3164V1.21463H97.65L102.111 11.3171ZM81.7137 13.6783C81.7137 13.6783 81.7764 15.0409 80.5034 15.0409C80.5034 15.0409 79.1631 15.1114 79.1631 13.7125L79.1494 1.22461H74.3869V13.6131C74.3869 13.6131 73.8976 18.3019 80.5692 18.3019C80.5692 18.3019 86.3684 18.3694 86.3684 13.8277V1.22461H81.7137V13.6783ZM7.91804 7.84252C8.65661 8.12458 9.84627 8.8555 9.84627 8.8555C12.0773 10.1862 11.8762 12.7126 11.8762 12.7126V14.3746C11.6071 18.4985 5.87284 18.3833 5.87284 18.3833C-0.129752 18.3833 0.000223948 14.4784 0.000223948 14.4784V12.4343H4.67324V13.8415C4.67324 15.038 5.8392 15.0911 5.8392 15.0911C7.11372 15.1404 7.22153 13.9196 7.22153 13.9196C7.39585 12.7292 6.07392 11.9816 6.07392 11.9816C4.76575 11.3167 2.58674 10.1521 2.58674 10.1521C1.5133 9.45525 1.07749 8.82214 1.07749 8.82214C0.306049 7.85768 0.356511 6.36172 0.356511 6.36172V5.06441C0.356511 3.26819 0.842773 2.75336 0.842773 2.75336C0.845745 2.74812 0.849287 2.74317 0.852846 2.73819C0.857526 2.73164 0.862235 2.72505 0.86571 2.71773C2.0569 0.905586 5.3881 0.728163 5.3881 0.728163C5.99593 0.697834 6.40956 0.724372 6.40956 0.724372C11.9091 0.872983 11.5742 4.26525 11.5742 4.26525L11.5826 6.33822H7.19706V4.93096C7.19706 3.93391 5.97376 3.86794 5.97376 3.86794C5.03411 3.86794 4.81774 4.49954 4.81774 4.49954C4.29707 5.46247 5.18626 6.295 5.18626 6.295C5.63812 6.79466 7.91804 7.84252 7.91804 7.84252Z" fill="black"/>
</svg>
