<svg xmlns="http://www.w3.org/2000/svg" viewBox="0 0 299.6 85.9" fill-rule="evenodd" xmlns:v="https://vecta.io/nano"><path class="svg-text" d="M146 36.6l-3.2 8.2h6.5l-3.3-8.2h0zm137.5-6.4h2.4v9l9.6-9h3.2L287.2 41l12.4 13.2h-3.2L285.9 43v11.2h-2.4v-24h0zm-31.6 24v-24h.5l15.9 18.3V30.2h2.4v23.9h-.5L254.4 36v18.1h-2.5v.1zm-16.6-24h2.4v23.9h-2.4V30.2h0zm-21.3 0h2.4v21.6h9.2v2.3H214V30.2h0zm-70.3 0h4.6l9.2 23.9h-4.7l-1.9-4.9h-9.8l-1.9 4.9h-4.7l9.2-23.9h0zm24.4 0H180v4.4h-7.3V39h7.3v4.4h-7.3v10.8h-4.5v-24h-.1zm22.9 0h11.9v4.4h-7.3V39h7.3v4.4h-7.3v10.8H191v-24h0zm-77.8 0h13.2v4.5H122v19.4h-4.6V34.7h-4.2v-4.5h0zm-9.4 3.3l-3.4 3C99.2 34.8 98 34 96.8 34c-.6 0-1.1.2-1.5.5s-.6.7-.6 1.1.1.8.4 1.1c.4.5 1.5 1.5 3.4 3.1l3.2 2.8c.9.9 1.6 1.8 2 2.7a6.71 6.71 0 0 1 .6 2.8c0 2-.7 3.6-2 4.9-1.4 1.3-3.1 1.9-5.3 1.9-1.7 0-3.2-.4-4.5-1.3-1.3-.8-2.4-2.2-3.3-3.9l3.8-2.3c1.2 2.1 2.5 3.2 4 3.2.8 0 1.4-.2 2-.7.5-.5.8-1 .8-1.6 0-.5-.2-1.1-.6-1.6s-1.3-1.4-2.7-2.5c-2.6-2.1-4.3-3.8-5.1-4.9-.8-1.2-1.1-2.3-1.1-3.5 0-1.7.6-3.1 1.9-4.3s2.8-1.8 4.7-1.8c1.2 0 2.3.3 3.4.8s2.2 1.5 3.5 3z" fill="#1a1a1a"></path><path d="M41.4 0l-4 6.9L11.9 51h25.5v6.9H0l18.7-32.4L33.4 0h8 0zm-9.6 85.9h8l14.7-25.5L73.2 28H35.8v6.9h25.5L35.8 79l-4 6.9z" fill="#0d9df0"></path></svg>