<svg width="175" height="50" viewBox="0 0 175 50" fill="none" xmlns="http://www.w3.org/2000/svg">
<path fill-rule="evenodd" clip-rule="evenodd" d="M4.04544 11.0586C3.43648 11.0586 2.95662 11.071 2.60519 11.0938C2.25443 11.1176 1.98483 11.2112 1.79771 11.3748C1.60993 11.5388 1.4872 11.7849 1.42885 12.1125C1.37016 12.4405 1.34133 12.92 1.34133 13.5521V14.1493C1.34133 14.8053 1.37016 15.3029 1.42885 15.6422C1.4872 15.9816 1.60993 16.2277 1.79771 16.3793C1.98483 16.5322 2.27187 16.614 2.65817 16.6254C3.04447 16.6375 3.57698 16.6429 4.25636 16.6429C4.86499 16.6429 5.35021 16.6315 5.71405 16.608C6.07621 16.5849 6.35118 16.4906 6.53896 16.327C6.72608 16.1633 6.84915 15.9175 6.90783 15.5896C6.96618 15.262 6.99535 14.7818 6.99535 14.1493V13.5521C6.99535 12.92 6.96618 12.4348 6.90783 12.0951C6.84915 11.7557 6.72038 11.5099 6.52153 11.3574C6.32268 11.2051 6.02993 11.1176 5.64329 11.0938C5.25733 11.071 4.72415 11.0586 4.04544 11.0586ZM47.2747 20.1163C46.6889 20.1163 46.1621 20.1394 45.6939 20.1863C45.2255 20.2336 44.816 20.2913 44.4646 20.3621C44.254 20.3855 44.0082 20.4496 43.7272 20.5552C43.4459 20.6605 43.2118 20.7601 43.0247 20.8536C42.4855 20.3621 41.7719 20.1163 40.8826 20.1163C40.2733 20.1163 39.7465 20.1863 39.3019 20.3265C38.8572 20.467 38.4706 20.6317 38.143 20.8188C37.7684 21.0294 37.4404 21.2517 37.1594 21.4861C37.0652 21.533 36.9837 21.6209 36.914 21.749C36.8432 21.8781 36.8083 22.0474 36.8083 22.2584V23.7684C36.8083 24.0966 36.914 24.3656 37.1246 24.5765C37.3351 24.7874 37.6041 24.8924 37.932 24.8924H38.6701L38.6423 33.8883C38.367 34.6847 37.1628 34.8625 36.6719 34.9024C36.6705 34.9024 36.6685 34.902 36.6685 34.902H36.4163C35.9438 34.8195 35.8979 34.2267 35.8956 34.0667V25.6301C35.8956 23.6403 35.3215 22.2178 34.1743 21.3627C33.0271 20.5086 31.154 20.0928 28.5555 20.1163C27.6652 20.1394 26.9047 20.1749 26.2726 20.2215C25.6401 20.2685 25.1599 20.3151 24.8326 20.3621C24.0828 20.5022 23.4511 20.7832 22.936 21.2047C22.327 20.8537 21.5953 20.5783 20.7409 20.3795C19.8858 20.1806 18.9201 20.0928 17.8437 20.1163C17.2578 20.1163 16.731 20.1394 16.2629 20.1863C15.7944 20.2336 15.385 20.2913 15.0339 20.3621C14.823 20.3855 14.5772 20.4496 14.2962 20.5552C14.0152 20.6605 13.7808 20.7601 13.5937 20.8536C13.0545 20.3621 12.3409 20.1163 11.4516 20.1163C10.8423 20.1163 10.3155 20.1863 9.87048 20.3265C9.42617 20.467 9.03953 20.6317 8.71191 20.8188C8.33735 21.0294 8.00939 21.2517 7.72872 21.4861C7.63449 21.533 7.55301 21.6209 7.48292 21.749C7.4125 21.8781 7.37729 22.0474 7.37729 22.2584V23.7684C7.37729 24.0966 7.48292 24.3656 7.69385 24.5765C7.90443 24.7874 8.17303 24.8924 8.50099 24.8924H9.23905L9.20317 36.4472C9.20317 36.916 9.22665 37.2963 9.27393 37.5887C9.32054 37.8818 9.41443 38.1098 9.55494 38.2735C9.69544 38.4378 9.90033 38.5431 10.1693 38.5897C10.4382 38.6373 10.7843 38.6598 11.2058 38.6598H12.4696C13.2892 38.6598 13.8217 38.5139 14.0682 38.2211C14.314 37.9281 14.4367 37.3375 14.4367 36.4472V25.1737C14.9987 25.0805 15.5721 24.998 16.1576 24.9273C16.7424 24.8572 17.34 24.8458 17.9486 24.8924C18.628 24.9397 19.1256 25.0741 19.4412 25.2965C19.7574 25.5191 19.9385 25.9346 19.9861 26.5432L19.9505 36.4472C19.9505 36.916 19.9683 37.2963 20.0035 37.5887C20.0384 37.8818 20.1263 38.1098 20.2668 38.2735C20.4069 38.4378 20.6058 38.5431 20.864 38.5897C21.1212 38.6373 21.4726 38.6598 21.9173 38.6598H23.1466C23.9896 38.6598 24.5339 38.5139 24.7797 38.2211C25.0258 37.9281 25.1485 37.3375 25.1485 36.4472V25.6301C25.1485 25.5597 25.1425 25.4668 25.1311 25.3491C25.1187 25.2321 25.1136 25.1503 25.1136 25.103C25.7219 25.0329 26.3544 24.9749 27.0099 24.9273C27.6652 24.881 28.2269 24.8696 28.6957 24.8924C29.9367 24.9628 30.6037 25.5017 30.6976 26.508V35.7799C30.6976 35.9208 30.7207 36.1431 30.768 36.4472C30.8146 36.7517 30.9259 37.074 31.1017 37.413C31.277 37.753 31.5517 38.0575 31.9269 38.3261C32.3011 38.5957 32.8279 38.765 33.5073 38.8355C34.4204 38.929 35.1984 38.8999 35.8432 38.7476C36.2701 38.6467 36.5843 38.5699 36.7899 38.5152L36.7902 38.5156C36.7973 38.5139 36.8043 38.5109 36.8117 38.5092C36.9046 38.484 36.9753 38.4639 37.0196 38.4492H37.0152C37.6721 38.2527 38.27 37.9039 38.6993 37.5471C38.7013 37.5602 38.703 37.5756 38.705 37.5887C38.7516 37.8818 38.8451 38.1098 38.9856 38.2735C39.1265 38.4378 39.331 38.5431 39.6006 38.5897C39.8692 38.6373 40.2153 38.6598 40.6365 38.6598H41.9007C42.7202 38.6598 43.2527 38.5139 43.4992 38.2211C43.7447 37.9281 43.8677 37.3375 43.8677 36.4472V25.1737C44.4294 25.0805 45.0032 24.998 45.5883 24.9273C46.1735 24.8572 46.7707 24.8458 47.3797 24.8924C48.0587 24.9397 48.5563 25.0741 48.8722 25.2965C49.1884 25.5191 49.3695 25.9346 49.4171 26.5432L49.3816 36.4472C49.3816 36.916 49.399 37.2963 49.4346 37.5887C49.4694 37.8818 49.557 38.1098 49.6978 38.2735C49.838 38.4378 50.0368 38.5431 50.295 38.5897C50.5522 38.6373 50.9033 38.6598 51.3483 38.6598H52.5776C53.4207 38.6598 53.9649 38.5139 54.2104 38.2211C54.4568 37.9281 54.5796 37.3375 54.5796 36.4472V25.6301C54.5796 25.5597 54.5732 25.4668 54.5621 25.3491C54.5497 25.2321 54.5444 25.1503 54.5444 25.103C55.153 25.0329 55.7854 24.9749 56.441 24.9273C57.0962 24.881 57.6579 24.8696 58.1267 24.8924C59.3674 24.9628 60.0347 25.5017 60.1286 26.508V35.7799C60.1286 35.9208 60.1518 36.1431 60.199 36.4472C60.2457 36.7517 60.3567 37.074 60.5327 37.413C60.7081 37.753 60.9827 38.0575 61.358 38.3261C61.7322 38.5957 62.259 38.765 62.9384 38.8355C63.8515 38.929 64.6294 38.8999 65.274 38.7476C65.733 38.6393 66.0616 38.5585 66.2645 38.5032C66.2675 38.5021 66.2702 38.5018 66.2736 38.5008C66.3225 38.4874 66.3641 38.4757 66.398 38.4656C67.9019 38.0431 68.9817 36.6454 68.9817 36.6454C68.9817 36.6454 68.9807 36.6417 68.9804 36.6401C69.2359 36.914 69.5209 37.1672 69.8395 37.3956C70.2962 37.7235 70.758 38.0049 71.2268 38.2386C72.2334 38.7064 73.5446 38.9408 75.1605 38.9408C76.7758 38.9408 78.1688 38.8355 79.3398 38.6249C80.4638 38.4378 81.3705 38.2272 82.0617 37.9924C82.7521 37.7591 83.0978 37.302 83.0978 36.623C83.0978 36.3654 83.0153 36.0147 82.852 35.5693C82.5469 34.8437 82.3014 34.3283 82.1143 34.0238C81.9269 33.72 81.5875 33.5674 81.0959 33.5674C80.9078 33.5674 80.7146 33.5852 80.5161 33.6201C80.3169 33.6549 80.0775 33.6962 79.7965 33.7431C79.0467 33.9071 78.3968 34.0181 77.8472 34.0768C77.2969 34.1351 76.8224 34.1764 76.4247 34.1995C75.3711 34.2468 74.5747 34.2059 74.0362 34.0768C73.4976 33.948 73.0758 33.72 72.7723 33.392C72.5842 33.2049 72.4148 32.9588 72.2626 32.6543C72.11 32.3505 72.0228 31.9987 71.9994 31.6007H80.8504C80.9903 31.6007 81.2012 31.5833 81.4819 31.548C81.7632 31.5125 82.0442 31.4075 82.3249 31.2315C82.6062 31.0561 82.8457 30.7815 83.0452 30.4062C83.2437 30.032 83.3436 29.5052 83.3436 28.8262C83.3436 27.515 83.2142 26.391 82.957 25.4547C82.6991 24.5182 82.3655 23.7335 81.9564 23.101C81.5466 22.4689 81.0899 21.9599 80.5865 21.5736C80.0825 21.1873 79.5795 20.8889 79.0762 20.6779C78.5729 20.467 78.1044 20.3265 77.6715 20.2564C77.2376 20.1863 76.8811 20.1515 76.6004 20.1515C75.6169 20.128 74.7568 20.1515 74.0187 20.2215C73.2813 20.2913 72.614 20.4321 72.0168 20.6427C71.4202 20.8537 70.8757 21.1518 70.3837 21.5384C69.8921 21.9247 69.3885 22.4109 68.8737 22.9961C68.2178 23.7684 67.6853 24.7287 67.2755 25.8759C66.8658 27.0234 66.6612 28.2645 66.6612 29.5988C66.6612 31.2278 66.8889 32.6489 67.3305 33.8752C67.3289 33.8803 67.3269 33.8833 67.3255 33.8883C66.9778 34.8943 65.9352 34.902 65.9352 34.902H65.737C65.3286 34.9014 65.3266 34.2052 65.3266 34.2052V25.6301C65.3266 23.6403 64.7525 22.2178 63.6053 21.3627C62.4582 20.5086 60.585 20.0928 57.9862 20.1163C57.0962 20.1394 56.3354 20.1749 55.7033 20.2215C55.0712 20.2685 54.591 20.3151 54.2637 20.3621C53.5139 20.5022 52.8818 20.7832 52.3667 21.2047C51.7577 20.8537 51.0264 20.5783 50.172 20.3795C49.4061 20.2014 48.552 20.1126 47.6087 20.1126C47.4987 20.1126 47.3874 20.1136 47.2747 20.1163ZM73.2552 24.769C73.84 24.3474 74.5777 24.1365 75.4674 24.1365H75.5381C76.4274 24.1365 77.1648 24.3474 77.7506 24.769C78.3355 25.1901 78.7214 26.0104 78.9095 27.2273H72.0963C72.2834 26.0104 72.6697 25.1901 73.2552 24.769ZM85.6383 20.3228C85.1816 20.4633 84.7896 20.6279 84.4616 20.8151C84.0871 21.0257 83.7594 21.248 83.4784 21.4824C83.4315 21.5058 83.3668 21.5759 83.2853 21.693C83.2028 21.8103 83.1622 21.9974 83.1622 22.2546V23.7646C83.1622 24.0929 83.2678 24.3619 83.4784 24.5728C83.6894 24.7837 83.9466 24.8887 84.251 24.8887H85.0588L84.9888 36.4435C84.9888 36.9123 85.0116 37.2926 85.0588 37.585C85.1055 37.8781 85.1997 38.1061 85.3399 38.2697C85.4804 38.4341 85.6852 38.5393 85.9545 38.586C86.2235 38.6336 86.5692 38.656 86.9907 38.656H88.2546C89.0741 38.656 89.6069 38.5102 89.8531 38.2174C90.0985 37.9243 90.2216 37.3338 90.2216 36.4435V25.1345C90.7135 25.0178 91.2454 24.9296 91.8198 24.8712C92.3932 24.8132 92.9489 24.7837 93.4877 24.7837C93.7919 24.7837 94.155 24.8186 94.5766 24.8887C94.928 24.936 95.2144 24.936 95.437 24.8887C95.6593 24.8421 95.8351 24.7482 95.9642 24.6077C96.0923 24.4672 96.2036 24.274 96.2975 24.0282C96.3907 23.7824 96.4963 23.484 96.614 23.1325L96.7891 22.6057C96.8595 22.4186 96.9125 22.2194 96.9474 22.0088C96.9822 21.7979 97 21.6346 97 21.5172C97 21.1658 96.9299 20.9026 96.7891 20.7269C96.6489 20.5515 96.4608 20.417 96.2274 20.3228C95.993 20.2299 95.712 20.1769 95.3844 20.1652C95.0564 20.1538 94.7171 20.1478 94.366 20.1478H94.085C93.5461 20.1478 93.0075 20.1652 92.4697 20.2001C91.9305 20.2353 91.4861 20.2762 91.1351 20.3228C90.8537 20.3701 90.5606 20.4459 90.2568 20.5515C89.952 20.6568 89.6713 20.7795 89.4138 20.92C89.1559 20.6863 88.8518 20.4931 88.501 20.3409C88.1496 20.1887 87.7281 20.1125 87.2365 20.1125C86.6272 20.1125 86.095 20.1826 85.6383 20.3228ZM2.51096 20.3228C2.05424 20.4633 1.6619 20.6159 1.33462 20.7795C0.959719 20.9904 0.6321 21.2131 0.351092 21.4468C0.11636 21.6108 0 21.8804 0 22.2546V23.7646C0 24.0929 0.105294 24.3619 0.315882 24.5728C0.52647 24.7837 0.78367 24.8887 1.08815 24.8887H1.8963V36.4435C1.8963 37.0052 1.91374 37.4328 1.94895 37.7255C1.98416 38.0186 2.07738 38.2349 2.22995 38.3754C2.38219 38.5155 2.60418 38.5977 2.89726 38.6212C3.18967 38.6446 3.60515 38.656 4.14403 38.656H4.53033C5.06854 38.656 5.50178 38.6446 5.82974 38.6212C6.15769 38.5977 6.41489 38.5155 6.60268 38.3754C6.78979 38.2349 6.91252 38.0186 6.97121 37.7255C7.02955 37.4328 7.0594 37.0052 7.0594 36.4435L7.02419 22.5356C7.02419 22.2781 6.95947 22.0035 6.83104 21.7104C6.7016 21.4177 6.51449 21.1544 6.26902 20.92C6.02289 20.6863 5.71841 20.4931 5.35558 20.3409C4.99275 20.1887 4.57727 20.1125 4.10882 20.1125C3.49985 20.1125 2.96768 20.1826 2.51096 20.3228Z" fill="url(#paint0_linear_2047_2101)"/>
<defs>
<linearGradient id="paint0_linear_2047_2101" x1="-1" y1="13.5586" x2="74.41" y2="66.8036" gradientUnits="userSpaceOnUse">
<stop stop-color="#41CCD2"/>
<stop offset="0.521903" stop-color="#5399E1"/>
<stop offset="1" stop-color="#675FF2"/>
</linearGradient>
</defs>
</svg>
