<svg width="20" height="57" viewBox="0 0 20 57" fill="none" xmlns="http://www.w3.org/2000/svg">
<g id="Fill 1">
<mask id="path-1-outside-1_331_8332" maskUnits="userSpaceOnUse" x="-16.5298" y="-0.73786" width="48.4002" height="58.3466" fill="black">
<rect fill="white" x="-16.5298" y="-0.73786" width="48.4002" height="58.3466"/>
<path fill-rule="evenodd" clip-rule="evenodd" d="M9.47657 52.5597C9.74212 51.8624 9.9852 51.1647 10.2205 50.4594C10.4295 49.8407 10.5999 49.216 10.7802 48.5911C11.2951 46.4997 11.7449 44.3906 11.9919 42.247C12.1254 41.0919 12.2545 39.9394 12.3282 38.7773C12.4046 37.6272 12.4446 36.4872 12.4521 35.334C12.4051 32.8689 12.2732 30.4084 12.0021 27.9562C11.7396 25.5788 11.2499 23.2163 10.6234 20.9097C10.6318 20.9368 10.6399 20.9649 10.6489 20.9933C10.6339 20.9398 10.6194 20.8876 10.6034 20.8337C10.6017 20.8297 10.601 20.8262 10.6003 20.8227C10.6001 20.8258 10.6012 20.8284 10.6023 20.831C10.4524 20.3078 10.3025 19.7845 10.1442 19.2633C10.0182 19.2976 9.89476 19.3415 9.76912 19.3749C7.86919 19.8756 5.91859 20.1574 4.05277 20.782C3.65288 20.9148 3.25725 21.0505 2.85465 21.1607C2.73736 21.1921 2.61985 21.1813 2.51508 21.1389C2.36395 21.0779 2.24165 20.9508 2.19709 20.7861C2.19415 20.7774 2.19715 20.77 2.19551 20.7607C2.15141 20.6803 2.13336 20.5835 2.15987 20.4885C2.37071 19.7184 2.59973 18.9514 2.75657 18.1681C2.9357 17.2762 3.08197 16.383 3.20599 15.4807C3.2025 15.5214 3.19681 15.5569 3.1924 15.5971C3.31341 14.6516 3.41659 13.7075 3.47633 12.7588C3.5399 11.7232 3.5537 10.688 3.53426 9.65232C3.51048 8.58467 3.43655 7.51833 3.34758 6.45454C3.26302 5.40116 3.11978 4.34888 3.00087 3.2978L2.94983 2.86086C2.9274 2.63609 3.12331 2.4208 3.3274 2.36413C3.36569 2.35479 3.40504 2.35883 3.44441 2.35748C3.64788 2.21427 3.9582 2.20699 4.12873 2.40424C4.23726 2.53868 4.36018 2.6509 4.48998 2.75942C4.47701 2.74879 4.46368 2.73909 4.44886 2.72771C4.46423 2.74039 4.47905 2.75177 4.49479 2.76353C4.51535 2.77938 4.53738 2.79691 4.55757 2.81369C4.54165 2.79971 4.52628 2.78703 4.50905 2.7736C4.79354 2.98777 5.08625 3.18692 5.36236 3.40848C5.63641 3.63246 5.90674 3.86031 6.18395 4.08448C6.97255 4.68999 7.78131 5.26158 8.54025 5.90579C9.31882 6.56548 10.0698 7.26147 10.8023 7.97375C11.5526 8.71152 12.2555 9.49704 12.9474 10.2857C13.3214 10.7161 13.6909 11.1469 14.0538 11.5836C14.2482 11.783 14.4526 11.9713 14.645 12.173C15.2323 12.7856 15.8276 13.3972 16.3687 14.0493C16.6653 14.4097 16.9656 14.7715 17.2095 15.1689C17.3365 15.3776 17.4553 15.6122 17.5342 15.8468C17.5916 15.9315 17.6539 16.0149 17.6991 16.1087C17.8035 16.3202 17.8337 16.547 17.855 16.7746C17.8745 16.9453 17.7651 17.0931 17.6204 17.1791C17.4767 17.3638 17.2334 17.4456 17.0074 17.4923C16.8246 17.5285 16.6401 17.5553 16.4545 17.5688C16.2773 17.5802 16.1005 17.5854 15.9244 17.6048C15.9497 17.601 15.9762 17.5966 16.0019 17.5919C15.9686 17.5968 15.9367 17.6011 15.903 17.607C15.9008 17.6072 15.8982 17.6083 15.8951 17.6081C15.8982 17.6083 15.8999 17.6068 15.903 17.607C15.8269 17.6193 15.7511 17.6308 15.6751 17.64C15.4207 17.6796 15.1689 17.7235 14.9214 17.7917C14.6753 17.8562 14.4308 17.93 14.186 18.0047C13.6926 18.1635 13.2016 18.335 12.708 18.5023C12.2702 18.649 11.8249 18.7635 11.3819 18.8962C11.713 19.8464 12.0445 20.7957 12.3411 21.7568C12.7552 23.0997 13.066 24.4688 13.3719 25.8392C13.6731 27.1786 13.8678 28.5332 14.0546 29.8942C14.2393 31.2415 14.3699 32.608 14.4521 33.9689C14.5361 35.448 14.6289 36.9297 14.5927 38.4153C14.561 39.8391 14.5161 41.2662 14.3679 42.685C14.2096 44.214 14.0177 45.7327 13.7569 47.2538C13.5143 48.6765 13.1819 50.105 12.7768 51.4922C12.555 52.2493 12.3261 52.9948 12.0704 53.7425C11.8379 54.4326 11.5718 55.1125 11.3134 55.7922"/>
</mask>
<path fill-rule="evenodd" clip-rule="evenodd" d="M9.47657 52.5597C9.74212 51.8624 9.9852 51.1647 10.2205 50.4594C10.4295 49.8407 10.5999 49.216 10.7802 48.5911C11.2951 46.4997 11.7449 44.3906 11.9919 42.247C12.1254 41.0919 12.2545 39.9394 12.3282 38.7773C12.4046 37.6272 12.4446 36.4872 12.4521 35.334C12.4051 32.8689 12.2732 30.4084 12.0021 27.9562C11.7396 25.5788 11.2499 23.2163 10.6234 20.9097C10.6318 20.9368 10.6399 20.9649 10.6489 20.9933C10.6339 20.9398 10.6194 20.8876 10.6034 20.8337C10.6017 20.8297 10.601 20.8262 10.6003 20.8227C10.6001 20.8258 10.6012 20.8284 10.6023 20.831C10.4524 20.3078 10.3025 19.7845 10.1442 19.2633C10.0182 19.2976 9.89476 19.3415 9.76912 19.3749C7.86919 19.8756 5.91859 20.1574 4.05277 20.782C3.65288 20.9148 3.25725 21.0505 2.85465 21.1607C2.73736 21.1921 2.61985 21.1813 2.51508 21.1389C2.36395 21.0779 2.24165 20.9508 2.19709 20.7861C2.19415 20.7774 2.19715 20.77 2.19551 20.7607C2.15141 20.6803 2.13336 20.5835 2.15987 20.4885C2.37071 19.7184 2.59973 18.9514 2.75657 18.1681C2.9357 17.2762 3.08197 16.383 3.20599 15.4807C3.2025 15.5214 3.19681 15.5569 3.1924 15.5971C3.31341 14.6516 3.41659 13.7075 3.47633 12.7588C3.5399 11.7232 3.5537 10.688 3.53426 9.65232C3.51048 8.58467 3.43655 7.51833 3.34758 6.45454C3.26302 5.40116 3.11978 4.34888 3.00087 3.2978L2.94983 2.86086C2.9274 2.63609 3.12331 2.4208 3.3274 2.36413C3.36569 2.35479 3.40504 2.35883 3.44441 2.35748C3.64788 2.21427 3.9582 2.20699 4.12873 2.40424C4.23726 2.53868 4.36018 2.6509 4.48998 2.75942C4.47701 2.74879 4.46368 2.73909 4.44886 2.72771C4.46423 2.74039 4.47905 2.75177 4.49479 2.76353C4.51535 2.77938 4.53738 2.79691 4.55757 2.81369C4.54165 2.79971 4.52628 2.78703 4.50905 2.7736C4.79354 2.98777 5.08625 3.18692 5.36236 3.40848C5.63641 3.63246 5.90674 3.86031 6.18395 4.08448C6.97255 4.68999 7.78131 5.26158 8.54025 5.90579C9.31882 6.56548 10.0698 7.26147 10.8023 7.97375C11.5526 8.71152 12.2555 9.49704 12.9474 10.2857C13.3214 10.7161 13.6909 11.1469 14.0538 11.5836C14.2482 11.783 14.4526 11.9713 14.645 12.173C15.2323 12.7856 15.8276 13.3972 16.3687 14.0493C16.6653 14.4097 16.9656 14.7715 17.2095 15.1689C17.3365 15.3776 17.4553 15.6122 17.5342 15.8468C17.5916 15.9315 17.6539 16.0149 17.6991 16.1087C17.8035 16.3202 17.8337 16.547 17.855 16.7746C17.8745 16.9453 17.7651 17.0931 17.6204 17.1791C17.4767 17.3638 17.2334 17.4456 17.0074 17.4923C16.8246 17.5285 16.6401 17.5553 16.4545 17.5688C16.2773 17.5802 16.1005 17.5854 15.9244 17.6048C15.9497 17.601 15.9762 17.5966 16.0019 17.5919C15.9686 17.5968 15.9367 17.6011 15.903 17.607C15.9008 17.6072 15.8982 17.6083 15.8951 17.6081C15.8982 17.6083 15.8999 17.6068 15.903 17.607C15.8269 17.6193 15.7511 17.6308 15.6751 17.64C15.4207 17.6796 15.1689 17.7235 14.9214 17.7917C14.6753 17.8562 14.4308 17.93 14.186 18.0047C13.6926 18.1635 13.2016 18.335 12.708 18.5023C12.2702 18.649 11.8249 18.7635 11.3819 18.8962C11.713 19.8464 12.0445 20.7957 12.3411 21.7568C12.7552 23.0997 13.066 24.4688 13.3719 25.8392C13.6731 27.1786 13.8678 28.5332 14.0546 29.8942C14.2393 31.2415 14.3699 32.608 14.4521 33.9689C14.5361 35.448 14.6289 36.9297 14.5927 38.4153C14.561 39.8391 14.5161 41.2662 14.3679 42.685C14.2096 44.214 14.0177 45.7327 13.7569 47.2538C13.5143 48.6765 13.1819 50.105 12.7768 51.4922C12.555 52.2493 12.3261 52.9948 12.0704 53.7425C11.8379 54.4326 11.5718 55.1125 11.3134 55.7922" fill="#0692E5"/>
<path d="M10.2205 50.4594L8.32332 49.8264L8.32569 49.8194L10.2205 50.4594ZM10.7802 48.5911L12.7222 49.0692L12.7128 49.1074L12.7018 49.1453L10.7802 48.5911ZM11.9919 42.247L10.0051 42.0181L10.0051 42.0175L11.9919 42.247ZM12.3282 38.7773L10.3322 38.6508L10.3326 38.6448L12.3282 38.7773ZM12.4521 35.334L14.4517 35.2959L14.4522 35.3215L14.452 35.3471L12.4521 35.334ZM12.0021 27.9562L10.0142 28.1761L10.0142 28.1757L12.0021 27.9562ZM10.6234 20.9097L8.69331 21.4339L12.533 20.3153L10.6234 20.9097ZM10.6489 20.9933L12.5743 20.4523L8.7421 21.5967L10.6489 20.9933ZM10.6034 20.8337L12.4444 20.0522L12.4888 20.1567L12.521 20.2656L10.6034 20.8337ZM10.6003 20.8227L8.60416 20.6983L12.5588 20.4174L10.6003 20.8227ZM10.6023 20.831L12.525 20.2803L8.76129 21.6125L10.6023 20.831ZM10.1442 19.2633L9.61916 17.3335L11.4936 16.8234L12.058 18.6822L10.1442 19.2633ZM9.76912 19.3749L10.2824 21.3079L10.2788 21.3089L9.76912 19.3749ZM4.05277 20.782L4.6876 22.6786L4.68341 22.6799L4.05277 20.782ZM2.85465 21.1607L3.38271 23.0898L3.37108 23.0929L2.85465 21.1607ZM2.19709 20.7861L4.09262 20.1482L4.1119 20.2055L4.12769 20.2638L2.19709 20.7861ZM2.19551 20.7607L3.94889 19.7986L4.10773 20.088L4.16509 20.4132L2.19551 20.7607ZM2.15987 20.4885L4.08891 21.0166L4.08624 21.0262L2.15987 20.4885ZM2.75657 18.1681L0.795501 17.7754L0.795735 17.7742L2.75657 18.1681ZM3.20599 15.4807L1.22462 15.2084L5.19869 15.6515L3.20599 15.4807ZM3.1924 15.5971L5.17622 15.851L1.20428 15.3794L3.1924 15.5971ZM3.47633 12.7588L5.47257 12.8814L5.47237 12.8845L3.47633 12.7588ZM3.53426 9.65232L5.53378 9.60778L5.53391 9.61479L3.53426 9.65232ZM3.34758 6.45454L1.35453 6.62123L1.35399 6.61456L3.34758 6.45454ZM3.00087 3.2978L4.98737 3.06576L4.98819 3.07296L3.00087 3.2978ZM2.94983 2.86086L0.963336 3.0929L0.961386 3.0762L0.959716 3.05948L2.94983 2.86086ZM3.3274 2.36413L2.79228 0.437048L2.82276 0.428582L2.8535 0.421087L3.3274 2.36413ZM3.44441 2.35748L4.59557 3.99297L4.10836 4.3359L3.5129 4.3563L3.44441 2.35748ZM4.12873 2.40424L5.64168 1.0962L5.66374 1.12171L5.68492 1.14795L4.12873 2.40424ZM4.48998 2.75942L5.77286 1.22508L3.22176 4.30591L4.48998 2.75942ZM4.44886 2.72771L3.17602 4.27039L5.66705 1.14152L4.44886 2.72771ZM4.49479 2.76353L5.69126 1.16088L5.70383 1.17027L5.71625 1.17985L4.49479 2.76353ZM4.55757 2.81369L5.87731 1.31094L3.27883 4.3515L4.55757 2.81369ZM4.50905 2.7736L3.27923 4.35079L5.71193 1.17576L4.50905 2.7736ZM5.36236 3.40848L6.61409 1.84862L6.62105 1.85421L6.62797 1.85987L5.36236 3.40848ZM6.18395 4.08448L4.96593 5.67081L4.94595 5.65547L4.92637 5.63963L6.18395 4.08448ZM8.54025 5.90579L7.24733 7.43169L7.24599 7.43054L8.54025 5.90579ZM10.8023 7.97375L12.1966 6.53983L12.2046 6.54772L10.8023 7.97375ZM12.9474 10.2857L14.4508 8.9666L14.4572 8.97394L12.9474 10.2857ZM14.0538 11.5836L12.6221 12.9802L12.5664 12.9231L12.5154 12.8617L14.0538 11.5836ZM14.645 12.173L13.2013 13.5571L13.1977 13.5533L14.645 12.173ZM16.3687 14.0493L17.9079 12.7723L17.9128 12.7783L16.3687 14.0493ZM17.2095 15.1689L18.9139 14.1224L18.9181 14.1293L17.2095 15.1689ZM17.5342 15.8468L15.8791 16.9697L15.7255 16.7433L15.6384 16.484L17.5342 15.8468ZM17.6991 16.1087L15.9056 16.9938L15.9014 16.9853L15.8973 16.9768L17.6991 16.1087ZM17.855 16.7746L15.8679 17.0011L15.8656 16.9811L15.8637 16.9611L17.855 16.7746ZM17.6204 17.1791L16.0417 15.9512L16.2737 15.6529L16.5986 15.4598L17.6204 17.1791ZM17.0074 17.4923L17.4126 19.4508L17.4039 19.4527L17.3951 19.4544L17.0074 17.4923ZM16.4545 17.5688L16.5993 19.5635L16.5914 19.5641L16.5835 19.5646L16.4545 17.5688ZM15.9244 17.6048L16.1439 19.5927L15.626 15.6272L15.9244 17.6048ZM16.0019 17.5919L15.7104 15.6133L16.3654 19.5586L16.0019 17.5919ZM15.903 17.607L16.2444 19.5776L16.1538 19.5933L16.0622 19.6006L15.903 17.607ZM15.903 17.607L16.0274 15.6108L16.2234 19.5811L15.903 17.607ZM15.6751 17.64L15.3674 15.6638L15.4009 15.6586L15.4345 15.6545L15.6751 17.64ZM14.9214 17.7917L15.4527 19.7198L15.4406 19.7231L15.4285 19.7263L14.9214 17.7917ZM14.186 18.0047L13.5735 16.1008L13.5878 16.0962L13.6021 16.0919L14.186 18.0047ZM12.708 18.5023L13.3499 20.3965L13.3433 20.3987L12.708 18.5023ZM11.3819 18.8962L9.49327 19.5543L8.80535 17.5803L10.8079 16.9803L11.3819 18.8962ZM12.3411 21.7568L14.2522 21.1671L14.2523 21.1675L12.3411 21.7568ZM13.3719 25.8392L11.4206 26.278L11.4199 26.275L13.3719 25.8392ZM14.0546 29.8942L16.036 29.6224L16.036 29.6225L14.0546 29.8942ZM14.4521 33.9689L16.4485 33.8483L16.4489 33.8555L14.4521 33.9689ZM14.5927 38.4153L12.5932 38.3708L12.5933 38.3666L14.5927 38.4153ZM14.3679 42.685L12.3785 42.479L12.3787 42.4771L14.3679 42.685ZM13.7569 47.2538L11.7853 46.9176L11.7856 46.9158L13.7569 47.2538ZM12.7768 51.4922L14.6965 52.053L14.6961 52.0544L12.7768 51.4922ZM12.0704 53.7425L10.175 53.104L10.178 53.0953L12.0704 53.7425ZM7.60751 51.8479C7.85984 51.1853 8.09332 50.5158 8.32333 49.8264L12.1177 51.0925C11.8771 51.8135 11.6244 52.5395 11.3456 53.2715L7.60751 51.8479ZM8.32569 49.8194C8.51582 49.2565 8.6674 48.6994 8.85849 48.0368L12.7018 49.1453C12.5324 49.7327 12.3432 50.4249 12.1153 51.0995L8.32569 49.8194ZM8.83817 48.1129C9.34444 46.0567 9.77204 44.0406 10.0051 42.0181L13.9788 42.476C13.7178 44.7406 13.2458 46.9426 12.7222 49.0692L8.83817 48.1129ZM10.0051 42.0175C10.1388 40.8606 10.2622 39.7551 10.3322 38.6508L14.3242 38.9039C14.2468 40.1236 14.1119 41.3233 13.9787 42.4765L10.0051 42.0175ZM10.3326 38.6448C10.4062 37.5362 10.4448 36.4361 10.4521 35.321L14.452 35.3471C14.4443 36.5383 14.4029 37.7182 14.3238 38.9099L10.3326 38.6448ZM10.4524 35.3721C10.4063 32.9521 10.2772 30.5541 10.0142 28.1761L13.99 27.7364C14.2693 30.2627 14.4039 32.7857 14.4517 35.2959L10.4524 35.3721ZM10.0142 28.1757C9.76536 25.9224 9.29893 23.6636 8.69331 21.4339L12.5535 20.3854C13.2009 22.7691 13.7138 25.2352 13.99 27.7367L10.0142 28.1757ZM12.533 20.3153C12.5408 20.3404 12.5483 20.3655 12.5512 20.3751C12.5553 20.3888 12.556 20.3907 12.5557 20.3899L8.7421 21.5967C8.73285 21.5675 8.72494 21.5412 8.72066 21.5269C8.71804 21.5182 8.71681 21.5141 8.71538 21.5094C8.71415 21.5053 8.71372 21.504 8.71375 21.5041L12.533 20.3153ZM8.72347 21.5343C8.70598 21.4721 8.69662 21.4383 8.68577 21.4017L12.521 20.2656C12.5421 20.3368 12.5617 20.4075 12.5743 20.4523L8.72347 21.5343ZM8.7624 21.6151C8.71718 21.5086 8.68785 21.4142 8.66852 21.3414C8.65924 21.3065 8.65256 21.2776 8.64835 21.2586C8.64624 21.2491 8.64458 21.2413 8.64353 21.2364C8.643 21.2338 8.64257 21.2317 8.64228 21.2304C8.64202 21.2291 8.64179 21.228 8.64177 21.2279L12.5588 20.4174C12.5613 20.4297 12.5295 20.2527 12.4444 20.0522L8.7624 21.6151ZM12.5964 20.947C12.6296 20.4138 12.4225 20.0006 12.4433 20.0496L8.76129 21.6125C8.76129 21.6125 8.76106 21.612 8.76081 21.6114C8.76053 21.6107 8.76009 21.6097 8.75956 21.6084C8.75853 21.606 8.75686 21.602 8.75484 21.5971C8.75087 21.5876 8.74448 21.572 8.73698 21.5527C8.72221 21.5146 8.69937 21.4525 8.67709 21.3742C8.63021 21.2093 8.58682 20.9767 8.60416 20.6983L12.5964 20.947ZM8.67964 21.3818C8.52902 20.8561 8.38342 20.348 8.23051 19.8444L12.058 18.6822C12.2216 19.2211 12.3758 19.7595 12.525 20.2803L8.67964 21.3818ZM10.6693 21.1931C10.6486 21.1988 10.6233 21.2065 10.5522 21.2287C10.494 21.2468 10.3926 21.2786 10.2824 21.3079L9.25587 17.4419C9.27126 17.4378 9.29439 17.431 9.36086 17.4102C9.41444 17.3935 9.51382 17.3621 9.61916 17.3335L10.6693 21.1931ZM10.2788 21.3089C9.27642 21.573 8.24399 21.7835 7.3284 21.9852C6.38312 22.1934 5.51495 22.4016 4.6876 22.6786L3.41795 18.8854C4.45641 18.5378 5.49645 18.2928 6.4679 18.0788C7.46905 17.8583 8.36189 17.6775 9.25941 17.4409L10.2788 21.3089ZM4.68341 22.6799C4.31142 22.8036 3.85071 22.9616 3.3827 23.0898L2.32659 19.2317C2.66378 19.1394 2.99434 19.0261 3.42213 18.884L4.68341 22.6799ZM3.37108 23.0929C2.80843 23.2433 2.24701 23.1877 1.76587 22.9933L3.2643 19.2846C2.9927 19.1748 2.6663 19.1409 2.33821 19.2286L3.37108 23.0929ZM1.76587 22.9933C1.08153 22.7168 0.487499 22.1253 0.2665 21.3084L4.12769 20.2638C3.9958 19.7763 3.64638 19.4389 3.2643 19.2846L1.76587 22.9933ZM0.301572 21.4241C0.175592 21.0498 0.195744 20.7322 0.197663 20.6876C0.197809 20.6842 0.197938 20.6814 0.198017 20.6797C0.198058 20.6789 0.198092 20.6781 0.198113 20.6777C0.198124 20.6775 0.198133 20.6773 0.198139 20.6771C0.198142 20.6771 0.198145 20.677 0.198147 20.677C0.198149 20.6769 0.198149 20.6769 0.19815 20.6769C0.198194 20.676 0.197969 20.6806 0.197728 20.6864C0.197236 20.698 0.196118 20.7265 0.196041 20.7631C0.195879 20.8395 0.199991 20.9611 0.225928 21.1082L4.16509 20.4132C4.19185 20.5649 4.1962 20.6909 4.19603 20.7716C4.19595 20.8103 4.19476 20.8409 4.19419 20.8547C4.1939 20.8614 4.19363 20.8671 4.19362 20.8672C4.19354 20.869 4.19375 20.8646 4.19396 20.8596C4.19553 20.8232 4.21565 20.5137 4.09262 20.1482L0.301572 21.4241ZM0.442134 21.7228C0.18921 21.2619 0.0443807 20.6284 0.233506 19.9508L4.08624 21.0262C4.22234 20.5386 4.11361 20.0988 3.94889 19.7986L0.442134 21.7228ZM0.23086 19.9604C0.458248 19.1298 0.656625 18.4689 0.795501 17.7754L4.71764 18.5608C4.54283 19.4338 4.28317 20.307 4.08888 21.0166L0.23086 19.9604ZM0.795735 17.7742C0.96549 16.9291 1.10523 16.077 1.22462 15.2084L5.18736 15.7531C5.05871 16.689 4.90592 17.6234 4.71741 18.5619L0.795735 17.7742ZM5.19869 15.6515C5.19336 15.7137 5.18686 15.7654 5.18361 15.791C5.1828 15.7974 5.18196 15.8039 5.18147 15.8077C5.1809 15.8122 5.18057 15.8148 5.18031 15.8169C5.17981 15.8209 5.18004 15.8192 5.18052 15.8148L1.20428 15.3794C1.20697 15.3549 1.20956 15.3337 1.21148 15.3185C1.21243 15.3109 1.21332 15.3039 1.21396 15.2989C1.2147 15.2932 1.21507 15.2903 1.21548 15.2871C1.21704 15.2748 1.21513 15.2885 1.21329 15.31L5.19869 15.6515ZM1.20858 15.3432C1.32673 14.4201 1.42427 13.5226 1.48028 12.6331L5.47237 12.8845C5.4089 13.8925 5.30009 14.8831 5.17622 15.851L1.20858 15.3432ZM1.48008 12.6363C1.53977 11.664 1.55325 10.6832 1.53461 9.68984L5.53391 9.61479C5.55414 10.6928 5.54002 11.7825 5.47257 12.8814L1.48008 12.6363ZM1.53476 9.69686C1.5123 8.68889 1.44217 7.66904 1.35454 6.62123L5.34062 6.28784C5.43093 7.36761 5.50865 8.48045 5.53376 9.60778L1.53476 9.69686ZM1.35399 6.61456C1.27284 5.60361 1.13937 4.6348 1.01355 3.52264L4.98819 3.07296C5.10019 4.06296 5.2532 5.1987 5.34116 6.29451L1.35399 6.61456ZM1.01437 3.52983L0.963336 3.0929L4.93632 2.62882L4.98736 3.06576L1.01437 3.52983ZM0.959716 3.05948C0.883745 2.29828 1.18445 1.68181 1.49607 1.29491C1.80504 0.911306 2.25088 0.587385 2.79228 0.437048L3.86252 4.29121C4.19983 4.19755 4.44567 4.00961 4.61127 3.804C4.77952 3.59511 4.99348 3.19868 4.93994 2.66224L0.959716 3.05948ZM2.8535 0.421087C3.08391 0.364889 3.27411 0.359393 3.35208 0.358088C3.37349 0.35773 3.39146 0.357701 3.40284 0.357717C3.40862 0.357725 3.41367 0.357746 3.41696 0.357762C3.42207 0.357784 3.421 0.357781 3.42362 0.357795C3.43134 0.357826 3.4078 0.357562 3.37592 0.358654L3.5129 4.3563C3.46134 4.35807 3.41812 4.35781 3.40619 4.35775C3.38327 4.35766 3.40177 4.35782 3.41892 4.35753C3.4578 4.35688 3.60918 4.35403 3.8013 4.30717L2.8535 0.421087ZM2.29325 0.721987C3.08317 0.165994 4.61382 -0.0926932 5.64168 1.0962L2.61577 3.71227C2.95318 4.10254 3.39153 4.23859 3.7196 4.25161C4.03128 4.26399 4.33578 4.17583 4.59557 3.99297L2.29325 0.721987ZM5.68492 1.14795C5.678 1.13938 5.67765 1.14028 5.69046 1.15264C5.70447 1.16617 5.72853 1.18801 5.77286 1.22508L3.20709 4.29376C3.03847 4.15278 2.80112 3.94369 2.57253 3.66052L5.68492 1.14795ZM3.22176 4.30591C3.23312 4.31522 3.24245 4.3226 3.24874 4.32752C3.25484 4.33228 3.25901 4.33545 3.25939 4.33574C3.25963 4.33593 3.25944 4.33579 3.25826 4.33489C3.25767 4.33444 3.25704 4.33397 3.25611 4.33326C3.25525 4.33262 3.25412 4.33176 3.25293 4.33086C3.24831 4.32736 3.24015 4.32119 3.23067 4.31391L5.66705 1.14152C5.66498 1.13993 5.66405 1.13923 5.6665 1.14108C5.66719 1.14161 5.67482 1.14737 5.68084 1.15195C5.69436 1.16223 5.72356 1.18453 5.7582 1.21294L3.22176 4.30591ZM5.72171 1.18503C5.70284 1.16947 5.68961 1.15965 5.69126 1.16088L3.29832 4.36617C3.26848 4.34389 3.22562 4.31132 3.17602 4.27039L5.72171 1.18503ZM5.71625 1.17985C5.75245 1.20777 5.79401 1.24073 5.8363 1.27589L3.27883 4.3515C3.28038 4.35278 3.2803 4.35269 3.27864 4.35137C3.27708 4.35013 3.27518 4.34863 3.27333 4.3472L5.71625 1.17985ZM3.23782 4.31645C3.24462 4.32242 3.2521 4.32881 3.25998 4.33532C3.26779 4.34177 3.27441 4.34703 3.27923 4.35079L5.73887 1.19641C5.78469 1.23213 5.83021 1.26958 5.87731 1.31094L3.23782 4.31645ZM5.71193 1.17576C5.87653 1.29967 6.32339 1.61535 6.61409 1.84862L4.11063 4.96835C3.84911 4.75849 3.71056 4.67586 3.30618 4.37144L5.71193 1.17576ZM6.62797 1.85987C6.94897 2.1222 7.15392 2.29675 7.44153 2.52933L4.92637 5.63963C4.65956 5.42388 4.32385 5.14271 4.09675 4.9571L6.62797 1.85987ZM7.40197 2.49816C8.10477 3.03778 9.02807 3.69649 9.83452 4.38104L7.24599 7.43054C6.53456 6.82666 5.84032 6.34219 4.96593 5.67081L7.40197 2.49816ZM9.83317 4.37989C10.6563 5.07731 11.4419 5.80608 12.1966 6.53985L9.40804 9.40764C8.69764 8.71687 7.98138 8.05366 7.24733 7.43169L9.83317 4.37989ZM12.2046 6.54772C13.0108 7.34054 13.7546 8.17317 14.4508 8.96661L11.4441 11.6047C10.7563 10.8209 10.0943 10.0825 9.39999 9.39977L12.2046 6.54772ZM14.4572 8.97394C14.8363 9.41023 15.2163 9.85319 15.5921 10.3056L12.5154 12.8617C12.1656 12.4406 11.8066 12.022 11.4377 11.5974L14.4572 8.97394ZM15.4854 10.1871C15.5621 10.2657 15.6417 10.3431 15.7482 10.4472C15.8474 10.5442 15.9693 10.6637 16.0924 10.7928L13.1977 13.5533C13.1283 13.4806 13.0518 13.4051 12.9522 13.3077C12.8598 13.2174 12.7399 13.1009 12.6221 12.9802L15.4854 10.1871ZM16.0888 10.789C16.6565 11.3812 17.3104 12.0521 17.9079 12.7723L14.8294 15.3264C14.3448 14.7422 13.8081 14.19 13.2013 13.5571L16.0888 10.789ZM17.9128 12.7783C18.1889 13.1138 18.5841 13.5852 18.9139 14.1224L15.5051 16.2153C15.3471 15.9579 15.1416 15.7056 14.8245 15.3204L17.9128 12.7783ZM18.9181 14.1293C19.0969 14.4231 19.2905 14.7946 19.43 15.2097L15.6384 16.484C15.6202 16.4298 15.5762 16.3321 15.5009 16.2084L18.9181 14.1293ZM19.1892 14.724C19.1977 14.7364 19.2039 14.7453 19.2239 14.7744C19.2403 14.7981 19.2651 14.8342 19.2919 14.8749C19.345 14.9556 19.4245 15.0821 19.5008 15.2405L15.8973 16.9768C15.9136 17.0106 15.9278 17.036 15.937 17.0517C15.946 17.0671 15.9516 17.0755 15.9506 17.0738C15.9501 17.0732 15.9486 17.0709 15.9454 17.0661C15.9421 17.0613 15.9379 17.0552 15.9317 17.0462C15.9286 17.0418 15.9255 17.0372 15.9217 17.0317C15.9181 17.0265 15.9139 17.0204 15.9096 17.0142C15.901 17.0017 15.8904 16.9864 15.8791 16.9697L19.1892 14.724ZM19.4926 15.2236C19.7732 15.7923 19.8234 16.3435 19.8463 16.5881L15.8637 16.9611C15.8595 16.9157 15.8563 16.8868 15.8535 16.8658C15.8508 16.8455 15.8494 16.8398 15.8503 16.8438C15.8522 16.853 15.8653 16.9121 15.9056 16.9938L19.4926 15.2236ZM19.8421 16.548C19.9828 17.7819 19.1811 18.5781 18.6421 18.8985L16.5986 15.4598C16.3491 15.6081 15.7661 16.1087 15.8679 17.0011L19.8421 16.548ZM19.199 18.4071C18.5833 19.1986 17.6994 19.3915 17.4126 19.4508L16.6022 15.5338C16.6402 15.5259 16.5933 15.5315 16.5071 15.5713C16.417 15.6129 16.221 15.7207 16.0417 15.9512L19.199 18.4071ZM17.3951 19.4544C17.1468 19.5035 16.8802 19.5431 16.5993 19.5635L16.3097 15.574C16.4 15.5675 16.5023 15.5535 16.6197 15.5303L17.3951 19.4544ZM16.5835 19.5646C16.3097 19.5823 16.2622 19.5797 16.1439 19.5927L15.7049 15.6169C15.9388 15.5911 16.2449 15.5782 16.3255 15.5729L16.5835 19.5646ZM15.626 15.6272C15.6297 15.6267 15.6328 15.6261 15.6353 15.6257C15.6378 15.6253 15.6389 15.6251 15.6384 15.6252L16.3654 19.5586C16.3139 19.5681 16.2652 19.576 16.2228 19.5824L15.626 15.6272ZM16.2933 19.5706C16.2821 19.5722 16.2711 19.5738 16.2638 19.5749C16.2555 19.5761 16.2505 19.5768 16.2462 19.5774C16.238 19.5786 16.2391 19.5785 16.2444 19.5776L15.5617 15.6363C15.6284 15.6248 15.7048 15.6141 15.7104 15.6133L16.2933 19.5706ZM16.0622 19.6006C16.1856 19.5908 16.2802 19.5712 16.3069 19.5657C16.3222 19.5625 16.3356 19.5595 16.3322 19.5603C16.3321 19.5603 16.3312 19.5605 16.3301 19.5607C16.3289 19.561 16.327 19.5614 16.3248 19.5619C16.3204 19.5629 16.3135 19.5643 16.3051 19.5661C16.2427 19.579 16.0368 19.6208 15.7707 19.6042L16.0194 15.6119C15.7565 15.5956 15.5534 15.6369 15.4937 15.6492C15.4856 15.6509 15.4791 15.6523 15.475 15.6532C15.4729 15.6537 15.4712 15.654 15.4702 15.6543C15.4696 15.6544 15.4692 15.6545 15.469 15.6545C15.4688 15.6546 15.4687 15.6546 15.4686 15.6546C15.4686 15.6546 15.4686 15.6546 15.4686 15.6546C15.4685 15.6546 15.4685 15.6546 15.4685 15.6546C15.4658 15.6552 15.4798 15.6521 15.4957 15.6488C15.5236 15.643 15.6194 15.6233 15.7439 15.6133L16.0622 19.6006ZM16.0194 15.6119C15.9779 15.6093 15.9366 15.6081 15.8956 15.6081C15.8547 15.6081 15.8148 15.6093 15.7761 15.6117C15.6981 15.6164 15.6286 15.6251 15.5691 15.635C15.5106 15.6448 15.4632 15.6554 15.4323 15.6628C15.4169 15.6664 15.4045 15.6696 15.3969 15.6716C15.393 15.6726 15.3899 15.6734 15.3881 15.6739C15.3864 15.6743 15.385 15.6747 15.3853 15.6746C15.3853 15.6746 15.3854 15.6746 15.3855 15.6746C15.3857 15.6745 15.3859 15.6745 15.3862 15.6744C15.3867 15.6743 15.3875 15.674 15.3885 15.6738C15.3905 15.6732 15.3938 15.6724 15.3978 15.6713C15.4057 15.6693 15.4184 15.6661 15.4341 15.6623C15.4656 15.6547 15.5137 15.644 15.5728 15.6342C15.633 15.6242 15.7032 15.6153 15.7818 15.6106C15.8209 15.6082 15.8611 15.607 15.9025 15.607C15.9438 15.607 15.9855 15.6082 16.0274 15.6108L15.7787 19.6031C15.8202 19.6057 15.8615 19.607 15.9025 19.607C15.9434 19.607 15.9833 19.6057 16.022 19.6034C16.1 19.5987 16.1695 19.5899 16.229 19.58C16.2875 19.5703 16.3349 19.5597 16.3658 19.5523C16.3812 19.5486 16.3936 19.5454 16.4012 19.5434C16.4051 19.5425 16.4082 19.5416 16.41 19.5411C16.4117 19.5407 16.4131 19.5403 16.4128 19.5404C16.4128 19.5404 16.4127 19.5404 16.4126 19.5405C16.4124 19.5405 16.4122 19.5406 16.4119 19.5406C16.4114 19.5408 16.4106 19.541 16.4096 19.5413C16.4075 19.5418 16.4043 19.5427 16.4003 19.5437C16.3924 19.5457 16.3797 19.549 16.364 19.5527C16.3325 19.5603 16.2844 19.571 16.2252 19.5809C16.1651 19.5909 16.0949 19.5997 16.0163 19.6045C15.9772 19.6068 15.9369 19.6081 15.8956 19.6081C15.8543 19.6081 15.8126 19.6068 15.7707 19.6042L16.0194 15.6119ZM16.2234 19.5811C16.134 19.5957 16.029 19.6117 15.9157 19.6255L15.4345 15.6545C15.4731 15.6498 15.5197 15.643 15.5826 15.6328L16.2234 19.5811ZM15.9827 19.6162C15.7434 19.6534 15.5849 19.6834 15.4527 19.7198L14.3901 15.8635C14.753 15.7635 15.098 15.7057 15.3674 15.6638L15.9827 19.6162ZM15.4285 19.7263C15.2254 19.7796 15.0155 19.8426 14.7699 19.9176L13.6021 16.0919C13.8461 16.0174 14.1252 15.9328 14.4142 15.8571L15.4285 19.7263ZM14.7985 19.9086C14.3247 20.0611 13.8674 20.2211 13.3499 20.3965L12.0661 16.6081C12.5358 16.4489 13.0606 16.2658 13.5735 16.1008L14.7985 19.9086ZM13.3433 20.3987C12.8754 20.5554 12.2878 20.7126 11.9559 20.812L10.8079 16.9803C11.3619 16.8143 11.6649 16.7425 12.0727 16.6059L13.3433 20.3987ZM13.2705 18.238C13.5992 19.1814 13.9431 20.1655 14.2522 21.1671L10.43 22.3465C10.146 21.426 9.82683 20.5115 9.49327 19.5543L13.2705 18.238ZM14.2523 21.1675C14.693 22.5967 15.0193 24.0392 15.3238 25.4035L11.4199 26.275C11.1126 24.8985 10.8174 23.6028 10.4299 22.3462L14.2523 21.1675ZM15.3231 25.4004C15.6451 26.8319 15.8495 28.2629 16.036 29.6224L12.0731 30.1661C11.8862 28.8035 11.7011 27.5253 11.4206 26.278L15.3231 25.4004ZM16.036 29.6225C16.2282 31.024 16.3635 32.441 16.4485 33.8483L12.4558 34.0894C12.3764 32.775 12.2504 31.4591 12.0731 30.1659L16.036 29.6225ZM16.4489 33.8555C16.5315 35.3094 16.6306 36.8802 16.5921 38.464L12.5933 38.3666C12.6271 36.9791 12.5408 35.5867 12.4553 34.0823L16.4489 33.8555ZM16.5922 38.4598C16.5604 39.8876 16.5145 41.3858 16.357 42.8929L12.3787 42.4771C12.5178 41.1466 12.5616 39.7906 12.5932 38.3708L16.5922 38.4598ZM16.3572 42.8909C16.1959 44.4488 15.9986 46.0139 15.7281 47.5917L11.7856 46.9158C12.0367 45.4515 12.2232 43.9792 12.3785 42.479L16.3572 42.8909ZM15.7284 47.59C15.4724 49.0912 15.1225 50.5947 14.6965 52.053L10.857 50.9315C11.2414 49.6154 11.5561 48.2618 11.7853 46.9176L15.7284 47.59ZM14.6961 52.0544C14.4698 52.827 14.2316 53.6035 13.9628 54.3897L10.178 53.0953C10.4205 52.3862 10.6402 51.6716 10.8574 50.93L14.6961 52.0544ZM13.9657 54.3809C13.7174 55.1182 13.4315 55.849 13.1828 56.503L9.44399 55.0814C9.71218 54.376 9.95839 53.7471 10.175 53.1041L13.9657 54.3809Z" fill="white" mask="url(#path-1-outside-1_331_8332)"/>
</g>
</svg>
