<svg width="22" height="58" viewBox="0 0 22 58" fill="none" xmlns="http://www.w3.org/2000/svg">
<g id="Fill 1">
<mask id="path-1-outside-1_331_8331" maskUnits="userSpaceOnUse" x="-12.1843" y="-0.914897" width="55.6471" height="59.1899" fill="black">
<rect fill="white" x="-12.1843" y="-0.914897" width="55.6471" height="59.1899"/>
<path fill-rule="evenodd" clip-rule="evenodd" d="M20.1384 52.4498C19.7014 51.8449 19.286 51.2339 18.8762 50.6136C18.5142 50.07 18.1879 49.5108 17.852 48.9537C16.8133 47.0669 15.833 45.1461 15.0396 43.1395C14.6117 42.0583 14.1887 40.9784 13.8168 39.8751C13.4453 38.7839 13.1116 37.6931 12.8059 36.5812C12.2133 34.1879 11.7038 31.7771 11.3311 29.3383C10.9693 26.9739 10.8308 24.5652 10.839 22.175C10.8379 22.2034 10.8373 22.2326 10.836 22.2624C10.8367 22.2068 10.8371 22.1526 10.8386 22.0964C10.8392 22.0922 10.839 22.0886 10.8388 22.085C10.8398 22.088 10.8394 22.0908 10.839 22.0936C10.8484 21.5494 10.8577 21.0052 10.8757 20.4607C11.0063 20.4612 11.1369 20.4717 11.2669 20.4714C13.2317 20.4634 15.1888 20.2307 17.1527 20.3511C17.5733 20.3759 17.9906 20.4046 18.408 20.4068C18.5294 20.4067 18.6401 20.3659 18.7303 20.2979C18.8605 20.1998 18.9458 20.0454 18.9462 19.8748C18.9468 19.8656 18.942 19.8592 18.9411 19.8498C18.9629 19.7607 18.9553 19.6626 18.9051 19.5777C18.5021 18.8884 18.0824 18.2067 17.7282 17.4907C17.3243 16.6757 16.9518 15.8507 16.5985 15.0113C16.6124 15.0497 16.6271 15.0824 16.6418 15.1202C16.2802 14.2382 15.9362 13.353 15.6329 12.4521C15.3035 11.4682 15.0222 10.4719 14.7729 9.46643C14.5196 8.429 14.315 7.37986 14.1256 6.32929C13.9347 5.28992 13.8007 4.23643 13.6435 3.19038L13.5797 2.75512C13.5432 2.5322 13.2982 2.37496 13.0864 2.37304C13.047 2.37393 13.0101 2.38801 12.9717 2.3969C12.7381 2.31123 12.4365 2.38452 12.3228 2.61918C12.2527 2.77714 12.1631 2.91734 12.0658 3.05576C12.0755 3.04214 12.0859 3.02931 12.0973 3.01449C12.0857 3.03071 12.0744 3.04554 12.0622 3.06097C12.0464 3.08161 12.0297 3.10424 12.0145 3.12568C12.0263 3.10805 12.0379 3.09182 12.051 3.07439C11.8317 3.35489 11.6005 3.62302 11.3911 3.90849C11.1844 4.19576 10.9822 4.48582 10.7725 4.7741C10.1675 5.56308 9.5342 6.32452 8.96785 7.14321C8.38656 7.98193 7.84132 8.84857 7.31811 9.72616C6.78437 10.633 6.30871 11.5737 5.84444 12.5145C5.5946 13.0271 5.34917 13.5388 5.11174 14.0546C4.97549 14.2975 4.82682 14.5322 4.69317 14.7769C4.28446 15.5207 3.86775 16.2654 3.5139 17.0354C3.32066 17.4603 3.12423 17.8875 2.99145 18.3344C2.92278 18.569 2.86877 18.8263 2.85333 19.0733C2.81975 19.17 2.78117 19.2667 2.7618 19.3689C2.71572 19.6002 2.74524 19.8272 2.78355 20.0525C2.80894 20.2224 2.9528 20.3369 3.1149 20.3825C3.30142 20.5237 3.55766 20.5397 3.78803 20.5264C3.974 20.514 4.15915 20.4922 4.34187 20.4571C4.51599 20.4223 4.6881 20.3816 4.86324 20.3548C4.83785 20.3576 4.81105 20.3603 4.78506 20.3623C4.81845 20.3585 4.85044 20.3544 4.88443 20.3513C4.88663 20.3509 4.88943 20.3513 4.89243 20.3503C4.88943 20.3513 4.88743 20.3503 4.88443 20.3513C4.96122 20.3435 5.0374 20.335 5.11317 20.3242C5.36911 20.2966 5.62366 20.2738 5.88047 20.2757C6.13486 20.2743 6.39008 20.2823 6.6459 20.2911C7.16356 20.3167 7.68225 20.3554 8.20233 20.3892C8.66319 20.4175 9.12298 20.4129 9.58522 20.4264C9.51129 21.43 9.43677 22.4328 9.39905 23.4379C9.34664 24.8422 9.40083 26.2451 9.46001 27.6479C9.51573 29.0196 9.67822 30.3785 9.85011 31.7415C10.0204 33.0907 10.2478 34.4444 10.5207 35.7802C10.8224 37.2307 11.1163 38.6858 11.5357 40.1115C11.9348 41.4786 12.3475 42.8454 12.858 44.1775C13.4066 45.6134 13.985 47.0307 14.6306 48.4325C15.2332 49.7439 15.9239 51.0377 16.6743 52.2728C17.0845 52.9467 17.4986 53.6076 17.9391 54.2636C18.3422 54.87 18.7752 55.4579 19.2007 56.0475"/>
</mask>
<path fill-rule="evenodd" clip-rule="evenodd" d="M20.1384 52.4498C19.7014 51.8449 19.286 51.2339 18.8762 50.6136C18.5142 50.07 18.1879 49.5108 17.852 48.9537C16.8133 47.0669 15.833 45.1461 15.0396 43.1395C14.6117 42.0583 14.1887 40.9784 13.8168 39.8751C13.4453 38.7839 13.1116 37.6931 12.8059 36.5812C12.2133 34.1879 11.7038 31.7771 11.3311 29.3383C10.9693 26.9739 10.8308 24.5652 10.839 22.175C10.8379 22.2034 10.8373 22.2326 10.836 22.2624C10.8367 22.2068 10.8371 22.1526 10.8386 22.0964C10.8392 22.0922 10.839 22.0886 10.8388 22.085C10.8398 22.088 10.8394 22.0908 10.839 22.0936C10.8484 21.5494 10.8577 21.0052 10.8757 20.4607C11.0063 20.4612 11.1369 20.4717 11.2669 20.4714C13.2317 20.4634 15.1888 20.2307 17.1527 20.3511C17.5733 20.3759 17.9906 20.4046 18.408 20.4068C18.5294 20.4067 18.6401 20.3659 18.7303 20.2979C18.8605 20.1998 18.9458 20.0454 18.9462 19.8748C18.9468 19.8656 18.942 19.8592 18.9411 19.8498C18.9629 19.7607 18.9553 19.6626 18.9051 19.5777C18.5021 18.8884 18.0824 18.2067 17.7282 17.4907C17.3243 16.6757 16.9518 15.8507 16.5985 15.0113C16.6124 15.0497 16.6271 15.0824 16.6418 15.1202C16.2802 14.2382 15.9362 13.353 15.6329 12.4521C15.3035 11.4682 15.0222 10.4719 14.7729 9.46643C14.5196 8.429 14.315 7.37986 14.1256 6.32929C13.9347 5.28992 13.8007 4.23643 13.6435 3.19038L13.5797 2.75512C13.5432 2.5322 13.2982 2.37496 13.0864 2.37304C13.047 2.37393 13.0101 2.38801 12.9717 2.3969C12.7381 2.31123 12.4365 2.38452 12.3228 2.61918C12.2527 2.77714 12.1631 2.91734 12.0658 3.05576C12.0755 3.04214 12.0859 3.02931 12.0973 3.01449C12.0857 3.03071 12.0744 3.04554 12.0622 3.06097C12.0464 3.08161 12.0297 3.10424 12.0145 3.12568C12.0263 3.10805 12.0379 3.09182 12.051 3.07439C11.8317 3.35489 11.6005 3.62302 11.3911 3.90849C11.1844 4.19576 10.9822 4.48582 10.7725 4.7741C10.1675 5.56308 9.5342 6.32452 8.96785 7.14321C8.38656 7.98193 7.84132 8.84857 7.31811 9.72616C6.78437 10.633 6.30871 11.5737 5.84444 12.5145C5.5946 13.0271 5.34917 13.5388 5.11174 14.0546C4.97549 14.2975 4.82682 14.5322 4.69317 14.7769C4.28446 15.5207 3.86775 16.2654 3.5139 17.0354C3.32066 17.4603 3.12423 17.8875 2.99145 18.3344C2.92278 18.569 2.86877 18.8263 2.85333 19.0733C2.81975 19.17 2.78117 19.2667 2.7618 19.3689C2.71572 19.6002 2.74524 19.8272 2.78355 20.0525C2.80894 20.2224 2.9528 20.3369 3.1149 20.3825C3.30142 20.5237 3.55766 20.5397 3.78803 20.5264C3.974 20.514 4.15915 20.4922 4.34187 20.4571C4.51599 20.4223 4.6881 20.3816 4.86324 20.3548C4.83785 20.3576 4.81105 20.3603 4.78506 20.3623C4.81845 20.3585 4.85044 20.3544 4.88443 20.3513C4.88663 20.3509 4.88943 20.3513 4.89243 20.3503C4.88943 20.3513 4.88743 20.3503 4.88443 20.3513C4.96122 20.3435 5.0374 20.335 5.11317 20.3242C5.36911 20.2966 5.62366 20.2738 5.88047 20.2757C6.13486 20.2743 6.39008 20.2823 6.6459 20.2911C7.16356 20.3167 7.68225 20.3554 8.20233 20.3892C8.66319 20.4175 9.12298 20.4129 9.58522 20.4264C9.51129 21.43 9.43677 22.4328 9.39905 23.4379C9.34664 24.8422 9.40083 26.2451 9.46001 27.6479C9.51573 29.0196 9.67822 30.3785 9.85011 31.7415C10.0204 33.0907 10.2478 34.4444 10.5207 35.7802C10.8224 37.2307 11.1163 38.6858 11.5357 40.1115C11.9348 41.4786 12.3475 42.8454 12.858 44.1775C13.4066 45.6134 13.985 47.0307 14.6306 48.4325C15.2332 49.7439 15.9239 51.0377 16.6743 52.2728C17.0845 52.9467 17.4986 53.6076 17.9391 54.2636C18.3422 54.87 18.7752 55.4579 19.2007 56.0475" fill="#0692E5"/>
<path d="M18.8762 50.6136L20.5449 49.5111L20.5408 49.505L18.8762 50.6136ZM17.852 48.9537L16.0999 49.9182L16.1189 49.9527L16.1393 49.9864L17.852 48.9537ZM15.0396 43.1395L16.8995 42.4042L16.8993 42.4036L15.0396 43.1395ZM13.8168 39.8751L15.712 39.2363L15.7101 39.2305L13.8168 39.8751ZM12.8059 36.5812L10.8645 37.0619L10.8707 37.0867L10.8775 37.1114L12.8059 36.5812ZM11.3311 29.3383L13.3081 29.0361L13.308 29.0358L11.3311 29.3383ZM10.839 22.175L12.839 22.1818L8.84059 22.0951L10.839 22.175ZM10.836 22.2624L8.83614 22.2382L12.834 22.3517L10.836 22.2624ZM10.8386 22.0964L8.85808 21.818L8.84227 21.9305L8.8393 22.044L10.8386 22.0964ZM10.8388 22.085L12.7347 21.4482L8.84212 22.2005L10.8388 22.085ZM10.839 22.0936L8.8393 22.0592L12.8195 22.3719L10.839 22.0936ZM10.8757 20.4607L10.8834 18.4607L8.94085 18.4532L8.87679 20.3948L10.8757 20.4607ZM11.2669 20.4714L11.2715 22.4714L11.2751 22.4714L11.2669 20.4714ZM17.1527 20.3511L17.0303 22.3473L17.0347 22.3476L17.1527 20.3511ZM18.408 20.4068L18.3972 22.4068L18.4092 22.4068L18.408 20.4068ZM18.9462 19.8748L16.9501 19.7492L16.9463 19.8095L16.9462 19.8699L18.9462 19.8748ZM18.9411 19.8498L16.9985 19.3743L16.92 19.695L16.9487 20.0239L18.9411 19.8498ZM18.9051 19.5777L17.1785 20.5871L17.1836 20.5956L18.9051 19.5777ZM17.7282 17.4907L19.5208 16.6039L19.5203 16.6028L17.7282 17.4907ZM16.5985 15.0113L18.4419 14.2354L14.7179 15.692L16.5985 15.0113ZM16.6418 15.1202L14.7913 15.8789L18.5058 14.3954L16.6418 15.1202ZM15.6329 12.4521L13.7364 13.0871L13.7374 13.0901L15.6329 12.4521ZM14.7729 9.46643L12.83 9.94092L12.8317 9.94773L14.7729 9.46643ZM14.1256 6.32929L16.0939 5.97447L16.0927 5.96788L14.1256 6.32929ZM13.6435 3.19038L11.6646 3.48039L11.6657 3.48756L13.6435 3.19038ZM13.5797 2.75512L15.5586 2.46511L15.5561 2.44848L15.5534 2.4319L13.5797 2.75512ZM13.0864 2.37304L13.1046 0.373123L13.0729 0.372835L13.0413 0.373549L13.0864 2.37304ZM12.9717 2.3969L12.283 4.27461L12.8424 4.47975L13.4229 4.34535L12.9717 2.3969ZM12.3228 2.61918L10.5228 1.74729L10.5081 1.77764L10.4945 1.80847L12.3228 2.61918ZM12.0658 3.05576L10.4295 1.90573L13.691 4.22131L12.0658 3.05576ZM12.0973 3.01449L13.726 4.17517L10.5101 1.79763L12.0973 3.01449ZM12.0622 3.06097L10.4917 1.8226L10.482 1.83492L10.4725 1.84739L12.0622 3.06097ZM12.0145 3.12568L10.3508 2.0157L13.6477 4.28012L12.0145 3.12568ZM12.051 3.07439L13.6471 4.27954L10.4756 1.84232L12.051 3.07439ZM11.3911 3.90849L9.77831 2.72576L9.77303 2.73296L9.76782 2.74021L11.3911 3.90849ZM10.7725 4.7741L12.3596 5.99113L12.3749 5.97114L12.3897 5.95077L10.7725 4.7741ZM8.96785 7.14321L10.6116 8.28248L10.6127 8.28102L8.96785 7.14321ZM7.31811 9.72616L5.60022 8.70197L5.59451 8.71166L7.31811 9.72616ZM5.84444 12.5145L4.05089 11.6295L4.04663 11.6382L5.84444 12.5145ZM5.11174 14.0546L6.85608 15.033L6.89511 14.9634L6.92847 14.8909L5.11174 14.0546ZM4.69317 14.7769L6.44595 15.7402L6.44845 15.7356L4.69317 14.7769ZM3.5139 17.0354L1.69659 16.2003L1.69337 16.2074L3.5139 17.0354ZM2.99145 18.3344L1.07427 17.7648L1.07201 17.7725L2.99145 18.3344ZM2.85333 19.0733L4.7426 19.7296L4.83237 19.4711L4.84943 19.1981L2.85333 19.0733ZM2.7618 19.3689L4.72326 19.7596L4.7251 19.7504L4.72685 19.7412L2.7618 19.3689ZM2.78355 20.0525L4.7616 19.757L4.75863 19.7371L4.75525 19.7172L2.78355 20.0525ZM3.1149 20.3825L4.32193 18.7878L4.0206 18.5597L3.65683 18.4573L3.1149 20.3825ZM3.78803 20.5264L3.9035 22.5231L3.91242 22.5225L3.92132 22.522L3.78803 20.5264ZM4.34187 20.4571L4.71828 22.4214L4.72604 22.4199L4.73379 22.4184L4.34187 20.4571ZM4.86324 20.3548L5.16574 22.3318L4.63958 18.3673L4.86324 20.3548ZM4.78506 20.3623L4.55446 18.3757L4.94298 22.3561L4.78506 20.3623ZM4.88443 20.3513L5.06474 22.3432L5.15628 22.3349L5.24667 22.3182L4.88443 20.3513ZM4.88443 20.3513L4.24767 18.4554L5.08591 22.3411L4.88443 20.3513ZM5.11317 20.3242L4.89888 18.3357L4.86521 18.3393L4.83169 18.3441L5.11317 20.3242ZM5.88047 20.2757L5.86631 22.2756L5.8788 22.2757L5.8913 22.2756L5.88047 20.2757ZM6.6459 20.2911L6.74478 18.2936L6.7298 18.2928L6.71481 18.2923L6.6459 20.2911ZM8.20233 20.3892L8.07255 22.385L8.07952 22.3854L8.20233 20.3892ZM9.58522 20.4264L11.5798 20.5734L11.7334 18.4886L9.64382 18.4273L9.58522 20.4264ZM9.39905 23.4379L7.40046 23.3629L7.40044 23.3633L9.39905 23.4379ZM9.46001 27.6479L11.4584 27.5668L11.4582 27.5636L9.46001 27.6479ZM9.85011 31.7415L7.86583 31.9917L7.86585 31.9919L9.85011 31.7415ZM10.5207 35.7802L8.56113 36.1804L8.56259 36.1874L10.5207 35.7802ZM11.5357 40.1115L13.4556 39.551L13.4544 39.547L11.5357 40.1115ZM12.858 44.1775L14.7262 43.4636L14.7255 43.4618L12.858 44.1775ZM14.6306 48.4325L16.448 47.5974L16.4472 47.5958L14.6306 48.4325ZM16.6743 52.2728L14.9651 53.3113L14.9659 53.3126L16.6743 52.2728ZM17.9391 54.2636L19.6046 53.1563L19.5995 53.1486L17.9391 54.2636ZM21.7595 51.2785C21.3443 50.7038 20.9455 50.1175 20.5449 49.5111L17.2075 51.7161C17.6265 52.3503 18.0585 52.9861 18.5172 53.621L21.7595 51.2785ZM20.5408 49.505C20.2114 49.0105 19.9208 48.5116 19.5648 47.921L16.1393 49.9864C16.4549 50.51 16.8169 51.1296 17.2116 51.7223L20.5408 49.505ZM19.6041 47.9892C18.5829 46.1342 17.648 44.2974 16.8995 42.4042L13.1797 43.8749C14.0179 45.9948 15.0438 47.9996 16.0999 49.9182L19.6041 47.9892ZM16.8993 42.4036C16.4708 41.3207 16.0654 40.2848 15.712 39.2363L11.9216 40.5139C12.3119 41.6721 12.7527 42.7959 13.1799 43.8754L16.8993 42.4036ZM15.7101 39.2305C15.352 38.1788 15.03 37.1262 14.7343 36.0509L10.8775 37.1114C11.1933 38.26 11.5386 39.389 11.9235 40.5196L15.7101 39.2305ZM14.7473 36.1004C14.1655 33.7509 13.6696 31.4012 13.3081 29.0361L9.35402 29.6405C9.73802 32.1529 10.2611 34.6249 10.8645 37.0619L14.7473 36.1004ZM13.308 29.0358C12.9652 26.7949 12.8311 24.4923 12.839 22.1818L8.839 22.1682C8.83056 24.6382 8.97341 27.153 9.35406 29.6408L13.308 29.0358ZM8.84059 22.0951C8.83954 22.1214 8.83879 22.1475 8.83848 22.1576C8.83805 22.1719 8.83795 22.1739 8.83799 22.1731L12.834 22.3517C12.8354 22.3211 12.8362 22.2936 12.8366 22.2788C12.8369 22.2697 12.837 22.2654 12.8372 22.2605C12.8373 22.2562 12.8374 22.2548 12.8374 22.2549L8.84059 22.0951ZM12.8358 22.2866C12.8366 22.222 12.8369 22.1869 12.8379 22.1488L8.8393 22.044C8.83735 22.1183 8.8367 22.1916 8.83614 22.2382L12.8358 22.2866ZM12.8191 22.3747C12.8353 22.2601 12.8392 22.1614 12.839 22.0861C12.8389 22.05 12.8379 22.0203 12.837 22.0009C12.8366 21.9912 12.8362 21.9832 12.8359 21.9781C12.8358 21.9756 12.8357 21.9734 12.8356 21.972C12.8355 21.9707 12.8355 21.9696 12.8355 21.9695L8.84212 22.2005C8.84285 22.213 8.82776 22.0337 8.85808 21.818L12.8191 22.3747ZM8.94286 22.7218C8.77275 22.2153 8.86588 21.7625 8.85847 21.8152L12.8195 22.3719C12.8195 22.3719 12.8196 22.3714 12.8197 22.3707C12.8198 22.37 12.82 22.3689 12.8202 22.3676C12.8205 22.3649 12.8211 22.3607 12.8218 22.3554C12.8232 22.3452 12.8253 22.3285 12.8275 22.3079C12.832 22.2673 12.8379 22.2014 12.8392 22.12C12.8418 21.9486 12.8235 21.7126 12.7347 21.4482L8.94286 22.7218ZM12.8387 22.128C12.8481 21.5812 12.8573 21.0527 12.8746 20.5267L8.87679 20.3948C8.85822 20.9576 8.84862 21.5176 8.8393 22.0592L12.8387 22.128ZM10.868 22.4607C10.8894 22.4608 10.9159 22.4617 10.9903 22.4647C11.0512 22.4672 11.1574 22.4717 11.2715 22.4714L11.2624 18.4714C11.2465 18.4715 11.2223 18.4708 11.1528 18.468C11.0967 18.4657 10.9926 18.4611 10.8834 18.4607L10.868 22.4607ZM11.2751 22.4714C12.3118 22.4671 13.3635 22.4032 14.3001 22.3611C15.267 22.3175 16.1595 22.2939 17.0303 22.3473L17.275 18.3548C16.1819 18.2878 15.1139 18.3204 14.1202 18.3651C13.0961 18.4112 12.1869 18.4676 11.2587 18.4714L11.2751 22.4714ZM17.0347 22.3476C17.4261 22.3707 17.912 22.4042 18.3972 22.4068L18.4188 18.4068C18.0692 18.4049 17.7206 18.3811 17.2706 18.3545L17.0347 22.3476ZM18.4092 22.4068C18.9916 22.4064 19.5195 22.2074 19.934 21.8951L17.5267 18.7006C17.7607 18.5243 18.0671 18.407 18.4067 18.4068L18.4092 22.4068ZM19.934 21.8951C20.5234 21.451 20.9441 20.7259 20.9462 19.8796L16.9462 19.8699C16.9474 19.3649 17.1976 18.9486 17.5267 18.7006L19.934 21.8951ZM20.9422 20.0004C20.967 19.6062 20.8654 19.3047 20.852 19.2622C20.851 19.2589 20.8501 19.2562 20.8496 19.2546C20.8493 19.2538 20.8491 19.2531 20.849 19.2527C20.8489 19.2524 20.8489 19.2523 20.8488 19.2521C20.8488 19.2521 20.8488 19.252 20.8488 19.252C20.8488 19.252 20.8488 19.2519 20.8488 19.2519C20.8485 19.251 20.8499 19.2555 20.8516 19.2609C20.8551 19.2721 20.8636 19.2993 20.8731 19.3346C20.893 19.4084 20.9205 19.527 20.9335 19.6757L16.9487 20.0239C16.9621 20.1773 16.9906 20.3002 17.0116 20.3781C17.0217 20.4155 17.0308 20.4447 17.0349 20.4579C17.0369 20.4643 17.0386 20.4697 17.0387 20.4698C17.0392 20.4716 17.0379 20.4673 17.0364 20.4626C17.0254 20.4278 16.9259 20.1341 16.9501 19.7492L20.9422 20.0004ZM20.8838 20.3253C21.0088 19.8146 20.9847 19.1653 20.6267 18.5597L17.1836 20.5956C16.9259 20.1599 16.9171 19.7069 16.9985 19.3743L20.8838 20.3253ZM20.6317 18.5683C20.1971 17.8249 19.8344 17.2379 19.5208 16.6039L15.9356 18.3776C16.3304 19.1756 16.8072 19.9519 17.1785 20.5871L20.6317 18.5683ZM19.5203 16.6028C19.1375 15.8304 18.782 15.0435 18.4419 14.2354L14.7552 15.7872C15.1217 16.6579 15.5111 17.5209 15.9361 18.3787L19.5203 16.6028ZM14.7179 15.692C14.7392 15.7507 14.7588 15.7989 14.7686 15.8229C14.771 15.8288 14.7735 15.8349 14.775 15.8384C14.7767 15.8426 14.7777 15.845 14.7785 15.847C14.78 15.8507 14.7794 15.8492 14.7778 15.845L18.5058 14.3954C18.4969 14.3724 18.4889 14.3526 18.4831 14.3383C18.4802 14.3313 18.4775 14.3248 18.4756 14.3201C18.4734 14.3148 18.4723 14.312 18.4711 14.3091C18.4664 14.2976 18.4718 14.3103 18.4791 14.3306L14.7179 15.692ZM18.4923 14.3615C18.1392 13.5004 17.8127 12.6587 17.5284 11.8141L13.7374 13.0901C14.0596 14.0473 14.4211 14.976 14.7913 15.8789L18.4923 14.3615ZM17.5294 11.8171C17.2201 10.8933 16.9533 9.94949 16.7142 8.98513L12.8317 9.94773C13.0912 10.9942 13.3868 12.0431 13.7364 13.0871L17.5294 11.8171ZM16.7158 8.99194C16.4767 8.01251 16.2804 7.00926 16.0939 5.97447L12.1573 6.68411C12.3496 7.75047 12.5625 8.8455 12.83 9.94092L16.7158 8.99194ZM16.0927 5.96788C15.9094 4.97038 15.7876 4.00004 15.6213 2.8932L11.6657 3.48756C11.8137 4.47281 11.9599 5.60946 12.1585 6.6907L16.0927 5.96788ZM15.6224 2.90037L15.5586 2.46511L11.6008 3.04514L11.6646 3.48039L15.6224 2.90037ZM15.5534 2.4319C15.4298 1.67697 14.9798 1.15933 14.5786 0.866269C14.1809 0.575704 13.6664 0.378213 13.1046 0.373123L13.0683 4.37296C12.7183 4.36979 12.4322 4.25188 12.219 4.09614C12.0024 3.93791 11.6931 3.61036 11.606 3.07835L15.5534 2.4319ZM13.0413 0.373549C12.8042 0.378902 12.619 0.422819 12.5434 0.441739C12.5226 0.446935 12.5052 0.451559 12.4943 0.454519C12.4887 0.456022 12.4838 0.457351 12.4806 0.458218C12.4757 0.45956 12.4767 0.459282 12.4742 0.459973C12.4668 0.462 12.4894 0.455653 12.5205 0.448457L13.4229 4.34535C13.4731 4.33371 13.5148 4.32226 13.5263 4.31912C13.5484 4.3131 13.5306 4.31804 13.514 4.3222C13.4762 4.33164 13.3293 4.36807 13.1316 4.37253L13.0413 0.373549ZM13.6603 0.519195C12.7534 0.186592 11.208 0.33288 10.5228 1.74729L14.1227 3.49106C13.8978 3.95537 13.5096 4.20023 13.1961 4.29772C12.8983 4.39034 12.5813 4.38399 12.283 4.27461L13.6603 0.519195ZM10.4945 1.80847C10.4989 1.7984 10.4995 1.79918 10.4903 1.81444C10.4803 1.83113 10.4627 1.85846 10.4295 1.90573L13.7021 4.20578C13.8285 4.02596 14.0036 3.76256 14.1511 3.42988L10.4945 1.80847ZM13.691 4.22131C13.6825 4.23325 13.6754 4.24279 13.6706 4.24917C13.6659 4.25535 13.6627 4.25949 13.6624 4.25987C13.6622 4.26012 13.6624 4.25992 13.6633 4.25875C13.6637 4.25817 13.6642 4.25755 13.6649 4.25662C13.6656 4.25578 13.6665 4.25466 13.6674 4.25348C13.671 4.24891 13.6772 4.24083 13.6845 4.23134L10.5101 1.79763C10.5117 1.79556 10.5124 1.79464 10.5105 1.79707C10.51 1.79775 10.5041 1.80529 10.4994 1.81128C10.4891 1.82471 10.4666 1.85381 10.4405 1.89021L13.691 4.22131ZM10.4685 1.85381C10.4827 1.83389 10.493 1.82099 10.4917 1.8226L13.6327 4.29934C13.6557 4.27009 13.6887 4.22753 13.726 4.17517L10.4685 1.85381ZM10.4725 1.84739C10.4447 1.88373 10.4131 1.92632 10.3814 1.97123L13.6477 4.28012C13.6466 4.28176 13.6466 4.28165 13.6479 4.27995C13.6491 4.27834 13.6505 4.27641 13.6519 4.27455L10.4725 1.84739ZM13.6783 4.23566C13.6732 4.24318 13.6677 4.25129 13.6617 4.25962C13.6559 4.26787 13.6508 4.27466 13.6471 4.27954L10.4549 1.86924C10.4199 1.91561 10.3856 1.96356 10.3508 2.0157L13.6783 4.23566ZM10.4756 1.84232C10.3487 2.00462 9.99873 2.42519 9.77831 2.72576L13.0039 5.09123C13.2022 4.82085 13.3147 4.70517 13.6265 4.30646L10.4756 1.84232ZM9.76782 2.74021C9.52565 3.07669 9.37286 3.29834 9.15525 3.59743L12.3897 5.95077C12.5916 5.67332 12.8431 5.31484 13.0144 5.07678L9.76782 2.74021ZM9.18539 3.55708C8.6462 4.26021 7.92485 5.13544 7.32305 6.00539L10.6127 8.28102C11.1435 7.51359 11.6887 6.86594 12.3596 5.99113L9.18539 3.55708ZM7.32406 6.00393C6.70952 6.89062 6.13925 7.79789 5.60025 8.70198L9.03598 10.7503C9.54339 9.89924 10.0636 9.07324 10.6116 8.28248L7.32406 6.00393ZM5.59451 8.71166C5.02095 9.68613 4.51801 10.6829 4.05091 11.6295L7.63797 13.3995C8.09941 12.4644 8.5478 11.5798 9.04171 10.7407L5.59451 8.71166ZM4.04663 11.6382C3.7934 12.1578 3.54095 12.684 3.29501 13.2182L6.92847 14.8909C7.15738 14.3937 7.39581 13.8964 7.64225 13.3908L4.04663 11.6382ZM3.3674 13.0762C3.31369 13.1719 3.25687 13.2673 3.18095 13.3954C3.11019 13.5148 3.02337 13.6618 2.9379 13.8183L6.44845 15.7356C6.49662 15.6474 6.55096 15.5547 6.62201 15.4348C6.68789 15.3236 6.77354 15.1801 6.85608 15.033L3.3674 13.0762ZM2.9404 13.8137C2.54527 14.5327 2.08735 15.35 1.69661 16.2003L5.3312 17.8705C5.64815 17.1808 6.02366 16.5086 6.44594 15.7402L2.9404 13.8137ZM1.69337 16.2074C1.5135 16.6028 1.25384 17.1605 1.07429 17.7648L4.90861 18.904C4.99463 18.6145 5.12783 18.3177 5.33443 17.8635L1.69337 16.2074ZM1.07201 17.7725C0.975367 18.1026 0.884535 18.5115 0.85722 18.9486L4.84943 19.1981C4.853 19.141 4.8702 19.0353 4.91089 18.8963L1.07201 17.7725ZM0.964053 18.4171C0.959122 18.4313 0.955412 18.4415 0.943571 18.4747C0.933904 18.5019 0.919259 18.5432 0.903917 18.5894C0.87351 18.6811 0.829466 18.8239 0.796741 18.9967L4.72685 19.7412C4.71988 19.778 4.71272 19.8062 4.7079 19.8237C4.70316 19.8409 4.69993 19.8505 4.70055 19.8486C4.70079 19.8479 4.70168 19.8453 4.70356 19.8398C4.70549 19.8343 4.70796 19.8273 4.71159 19.8171C4.71342 19.812 4.71528 19.8068 4.71752 19.8005C4.71965 19.7945 4.72214 19.7876 4.72469 19.7804C4.72977 19.7661 4.73598 19.7486 4.7426 19.7296L0.964053 18.4171ZM0.800332 18.9782C0.676444 19.6002 0.770674 20.1456 0.811851 20.3877L4.75525 19.7172C4.74761 19.6723 4.74322 19.6436 4.74046 19.6226C4.73779 19.6023 4.73763 19.5964 4.73786 19.6005C4.73839 19.6098 4.74104 19.6704 4.72326 19.7596L0.800332 18.9782ZM0.805499 20.348C0.988975 21.5762 1.96938 22.1378 2.57297 22.3077L3.65683 18.4573C3.93621 18.536 4.6289 18.8686 4.7616 19.757L0.805499 20.348ZM1.90787 21.9772C2.70747 22.5824 3.61117 22.54 3.9035 22.5231L3.67255 18.5297C3.63378 18.532 3.68051 18.5253 3.77413 18.5414C3.87189 18.5582 4.08916 18.6116 4.32193 18.7878L1.90787 21.9772ZM3.92132 22.522C4.17391 22.5051 4.44173 22.4744 4.71828 22.4214L3.96546 18.4929C3.87658 18.5099 3.77409 18.5229 3.65473 18.5308L3.92132 22.522ZM4.73379 22.4184C5.00285 22.3646 5.04811 22.3498 5.16574 22.3318L4.56075 18.3778C4.3281 18.4134 4.02913 18.4801 3.94995 18.4959L4.73379 22.4184ZM4.63958 18.3673C4.63593 18.3677 4.63276 18.368 4.63026 18.3683C4.6277 18.3685 4.62666 18.3686 4.62714 18.3686L4.94298 22.3561C4.99511 22.352 5.04424 22.347 5.0869 22.3422L4.63958 18.3673ZM5.01566 22.349C5.02697 22.3477 5.03801 22.3464 5.04531 22.3455C5.05361 22.3445 5.05862 22.3439 5.06292 22.3434C5.07123 22.3425 5.07013 22.3427 5.06474 22.3432L4.70412 18.3595C4.63669 18.3656 4.56009 18.375 4.55446 18.3757L5.01566 22.349ZM5.24667 22.3182C5.125 22.3406 5.0285 22.3462 5.00125 22.3478C4.98568 22.3487 4.972 22.3493 4.97545 22.3491C4.97551 22.3491 4.97647 22.3491 4.97762 22.349C4.97885 22.349 4.98073 22.3489 4.98301 22.3488C4.98753 22.3486 4.99454 22.3482 5.0031 22.3477C5.06672 22.3441 5.27647 22.3311 5.52919 22.2462L4.25567 18.4544C4.5054 18.3705 4.71225 18.3578 4.77316 18.3543C4.78139 18.3539 4.78807 18.3535 4.79225 18.3533C4.79437 18.3532 4.79608 18.3532 4.79715 18.3531C4.79769 18.3531 4.79813 18.3531 4.7984 18.353C4.79854 18.353 4.79865 18.353 4.79871 18.353C4.79875 18.353 4.79878 18.353 4.7988 18.353C4.79881 18.353 4.79883 18.353 4.79883 18.353C4.80163 18.3529 4.78732 18.3535 4.77113 18.3544C4.74264 18.3561 4.64497 18.3618 4.5222 18.3844L5.24667 22.3182ZM4.25567 18.4544C4.29513 18.4411 4.33468 18.4292 4.37424 18.4186C4.4138 18.408 4.45265 18.3989 4.49066 18.3911C4.56714 18.3755 4.63658 18.366 4.6966 18.3601C4.75564 18.3544 4.80421 18.3524 4.83596 18.3515C4.85178 18.3511 4.86458 18.3509 4.87242 18.3509C4.8764 18.3508 4.87961 18.3508 4.88153 18.3508C4.88327 18.3508 4.88475 18.3508 4.88442 18.3508C4.88441 18.3508 4.8843 18.3508 4.88416 18.3508C4.88402 18.3508 4.88379 18.3508 4.88352 18.3508C4.88298 18.3508 4.88212 18.3508 4.88106 18.3508C4.87898 18.3508 4.87562 18.3508 4.87148 18.3509C4.86332 18.3509 4.85021 18.3511 4.83408 18.3515C4.80169 18.3524 4.75249 18.3545 4.69278 18.3603C4.63211 18.3662 4.562 18.3758 4.48482 18.3916C4.44647 18.3994 4.40726 18.4086 4.36734 18.4193C4.32743 18.43 4.28751 18.442 4.24767 18.4554L5.5212 22.2472C5.48173 22.2605 5.44218 22.2724 5.40263 22.283C5.36307 22.2936 5.32421 22.3027 5.28621 22.3105C5.20972 22.3261 5.14028 22.3356 5.08027 22.3415C5.02122 22.3472 4.97266 22.3493 4.9409 22.3501C4.92509 22.3505 4.91229 22.3507 4.90445 22.3507C4.90047 22.3508 4.89726 22.3508 4.89534 22.3508C4.8936 22.3508 4.89211 22.3508 4.89245 22.3508C4.89245 22.3508 4.89257 22.3508 4.8927 22.3508C4.89285 22.3508 4.89307 22.3508 4.89335 22.3508C4.89389 22.3508 4.89475 22.3508 4.89581 22.3508C4.89788 22.3508 4.90125 22.3508 4.90539 22.3507C4.91354 22.3507 4.92666 22.3505 4.94279 22.3501C4.97518 22.3492 5.02438 22.3471 5.08408 22.3413C5.14475 22.3354 5.21486 22.3258 5.29204 22.31C5.3304 22.3022 5.3696 22.293 5.40952 22.2823C5.44944 22.2716 5.48936 22.2596 5.52919 22.2462L4.25567 18.4544ZM5.08591 22.3411C5.17601 22.332 5.28164 22.3204 5.39466 22.3043L4.83169 18.3441C4.79316 18.3496 4.74642 18.3551 4.68296 18.3615L5.08591 22.3411ZM5.32746 22.3127C5.56829 22.2867 5.72911 22.2746 5.86631 22.2756L5.89462 18.2757C5.51821 18.273 5.16993 18.3065 4.89888 18.3357L5.32746 22.3127ZM5.8913 22.2756C6.1013 22.2745 6.32034 22.2811 6.577 22.2899L6.71481 18.2923C6.45983 18.2835 6.16842 18.2741 5.86963 18.2757L5.8913 22.2756ZM6.54702 22.2887C7.04419 22.3133 7.52729 22.3495 8.07255 22.385L8.33211 18.3934C7.83721 18.3612 7.28293 18.3202 6.74478 18.2936L6.54702 22.2887ZM8.07952 22.3854C8.57199 22.4157 9.18027 22.4154 9.52661 22.4256L9.64382 18.4273C9.0657 18.4103 8.75439 18.4194 8.32514 18.393L8.07952 22.3854ZM7.59062 20.2795C7.51724 21.2758 7.43977 22.3154 7.40046 23.3629L11.3976 23.5129C11.4338 22.5502 11.5054 21.5842 11.5798 20.5734L7.59062 20.2795ZM7.40044 23.3633C7.34467 24.8578 7.40287 26.3356 7.46179 27.7322L11.4582 27.5636C11.3988 26.1545 11.3486 24.8266 11.3977 23.5125L7.40044 23.3633ZM7.46166 27.7291C7.52121 29.1951 7.69413 30.6303 7.86583 31.9917L11.8344 31.4912C11.6623 30.1267 11.5102 28.8441 11.4584 27.5668L7.46166 27.7291ZM7.86585 31.9919C8.04295 33.3953 8.279 34.799 8.56114 36.1804L12.4802 35.3799C12.2167 34.0897 11.9978 32.7861 11.8344 31.4911L7.86585 31.9919ZM8.56259 36.1874C8.85913 37.6132 9.16989 39.1561 9.61704 40.676L13.4544 39.547C13.0627 38.2155 12.7856 36.8482 12.4788 35.3729L8.56259 36.1874ZM9.61586 40.6719C10.0161 42.0429 10.4482 43.4782 10.9904 44.8931L14.7255 43.4618C14.2469 42.2127 13.8536 40.9142 13.4556 39.551L9.61586 40.6719ZM10.9897 44.8913C11.5487 46.3544 12.1444 47.8151 12.814 49.2691L16.4472 47.5958C15.8257 46.2463 15.2645 44.8725 14.7262 43.4636L10.9897 44.8913ZM12.8133 49.2675C13.4491 50.6513 14.1762 52.0129 14.9651 53.3113L18.3836 51.2343C17.6716 50.0625 17.0173 48.8365 16.448 47.5974L12.8133 49.2675ZM14.9659 53.3126C15.3844 54.0003 15.8155 54.6887 16.2787 55.3785L19.5995 53.1486C19.1817 52.5264 18.7845 51.8931 18.3828 51.233L14.9659 53.3126ZM16.2735 55.3708C16.7042 56.0187 17.1695 56.6506 17.579 57.2179L20.8225 54.8771C20.3809 54.2652 19.9803 53.7214 19.6046 53.1563L16.2735 55.3708Z" fill="white" mask="url(#path-1-outside-1_331_8331)"/>
</g>
</svg>
