<?xml version="1.0" encoding="UTF-8"?>
<svg width="126px" height="44px" viewBox="0 0 126 44" version="1.1" xmlns="http://www.w3.org/2000/svg" xmlns:xlink="http://www.w3.org/1999/xlink">
    <!-- Generator: Sketch 52.6 (67491) - http://www.bohemiancoding.com/sketch -->
    <title>tinify-logo</title>
    <desc>Created with Sketch.</desc>
    <g id="Symbols" stroke="none" stroke-width="1" fill="none" fill-rule="evenodd">
        <g id="website/navigation/proposed-navigation" transform="translate(-179.000000, -18.000000)">
            <g id="website/branding/tinify-logo" transform="translate(179.000000, 18.000000)">
                <g id="Group-9">
                    <path d="M125.453214,22.8830399 C125.453214,34.5033599 115.992051,43.9231198 104.322752,43.9231198 L21.1304619,43.9231198 C9.46068135,43.9231198 0,34.5033599 0,22.8830399 L0,21.0388799 C0,9.41975997 9.46068135,0 21.1304619,0 L104.322752,0 C115.992051,0 125.453214,9.41975997 125.453214,21.0388799 L125.453214,22.8830399 Z" id="Fill-1" fill="#3F444F"></path>
                    <path d="M74.8266379,2.37095999 L71.6825582,2.37095999 L24.2275395,2.37095999 L21.0834116,2.37095999 C10.7280029,2.37095999 2.42164518,10.83336 2.42164518,21.1435679 L2.42164518,22.7784479 C2.42164518,33.0902879 10.7280029,41.4910079 21.0834116,41.4910079 L74.8266379,41.4910079 C85.1818055,41.4910079 93.5334781,33.0902879 93.5334781,22.7784479 L93.5334781,21.1435679 C93.5334781,10.83336 85.1818055,2.37095999 74.8266379,2.37095999" id="Fill-2" fill="#FFFFFF"></path>
                    <path d="M20.4228512,26.2456079 L20.4228512,24.5346479 C20.4404468,23.8040879 20.7627126,23.4385679 21.3894074,23.4385679 C22.0156201,23.4385679 22.3292086,23.8487279 22.3292086,24.6683279 C22.3292086,26.6108879 22.0799769,27.9656879 21.5824776,28.7315279 C20.9070934,29.7654479 19.7956743,30.2821679 18.2494253,30.2821679 C16.8273102,30.2821679 15.8137518,29.8278479 15.2097144,28.9189679 C14.7650022,28.2596879 14.5430076,27.1369679 14.5430076,25.5505679 L14.5430076,19.1344799 C14.5430076,18.7605599 14.3689792,18.5733599 14.0211636,18.5733599 L13.1428267,18.5733599 C12.8499674,18.5733599 12.6070027,18.4797599 12.4148966,18.2925599 C12.2227905,18.1053599 12.126858,17.8783199 12.126858,17.6107199 C12.126858,17.3613599 12.2206212,17.1388799 12.4086297,16.9425599 C12.5966381,16.7467199 12.8068219,16.6485599 13.0396631,16.6485599 L14.0867255,16.6485599 C14.3909136,16.6485599 14.5430076,16.4793599 14.5430076,16.1407199 L14.5430076,13.3872 C14.5430076,12.70992 14.8920284,12.37128 15.590311,12.37128 C16.2346015,12.37128 16.5566262,12.70992 16.5566262,13.3872 L16.5566262,16.2475199 C16.5566262,16.5146399 16.7178796,16.6485599 17.0399043,16.6485599 L19.9663281,16.6485599 C20.646533,16.6485599 20.9866355,16.9605599 20.9866355,17.5840799 C20.9866355,18.2435999 20.6195369,18.5733599 19.8858219,18.5733599 L16.9326431,18.5733599 C16.6817242,18.5733599 16.5566262,18.7605599 16.5566262,19.1344799 L16.5566262,25.7106479 C16.5566262,27.5821679 17.1825979,28.5179279 18.4352645,28.5179279 C19.7055266,28.5179279 20.3683769,27.7604879 20.4228512,26.2456079" id="Fill-3" fill="#5C6C7D"></path>
                    <path d="M26.6516432,15.1780799 C26.2397119,15.1780799 25.8865935,15.0309599 25.5910828,14.7369599 C25.2958131,14.44296 25.1480578,14.09112 25.1480578,13.68096 C25.1480578,13.27128 25.2958131,12.92352 25.5910828,12.6384 C25.8865935,12.35328 26.2397119,12.21072 26.6516432,12.21072 C27.0633335,12.21072 27.416693,12.35328 27.7122037,12.6384 C28.0074734,12.92352 28.1552287,13.27128 28.1552287,13.68096 C28.1552287,14.09112 28.0074734,14.44296 27.7122037,14.7369599 C27.416693,15.0309599 27.0633335,15.1780799 26.6516432,15.1780799 M28.0477265,22.1823599 L28.0477265,25.6573199 C28.0477265,26.5489199 28.0566448,27.0742799 28.0744815,27.2345999 C28.163906,28.0366799 28.4056656,28.4377199 28.7995192,28.4377199 C28.8889437,28.4377199 29.1123845,28.3933199 29.4708058,28.3037999 C29.5599893,28.2685199 29.6944876,28.2505199 29.8735777,28.2505199 C30.5533005,28.2505199 30.893644,28.5445199 30.893644,29.1327599 C30.893644,29.3825999 30.781321,29.5961999 30.5569161,29.7742799 C30.3325111,29.9523599 30.0497754,30.0416399 29.7082267,30.0416399 C29.4209112,30.0416399 28.9853583,30.0015599 28.401809,29.9213999 C27.8177777,29.8412399 27.3824658,29.8011599 27.0951503,29.8011599 C26.6277806,29.8011599 26.1071419,29.8369199 25.5322699,29.9079599 C24.8318179,29.9969999 24.3649303,30.0416399 24.131607,30.0416399 C23.4129809,30.0416399 23.0538365,29.7387599 23.0538365,29.1327599 C23.0538365,28.5445199 23.360917,28.2505199 23.9750779,28.2505199 C24.1195552,28.2505199 24.3314262,28.2771599 24.6115106,28.3306799 C24.8913539,28.3839599 25.1037071,28.4110799 25.2483289,28.4110799 C25.6817125,28.4110799 25.9434781,27.8408399 26.0341078,26.7001199 L26.0341078,19.8561599 C25.9434781,18.7334399 25.6727942,18.1720799 25.2215739,18.1720799 C25.076711,18.1720799 24.8735172,18.2032799 24.6115106,18.2656799 C24.349745,18.3283199 24.1557106,18.3592799 24.0293111,18.3592799 C23.3789947,18.3592799 23.0538365,18.0743999 23.0538365,17.5036799 C23.0538365,16.8979199 23.4474491,16.5947999 24.2352527,16.5947999 C24.5751141,16.5947999 24.8166326,16.6039199 24.9600493,16.6216799 C25.532752,16.6929599 25.8998505,16.7284799 26.0608629,16.7284799 C26.2040385,16.7284799 26.4233817,16.7061599 26.7186514,16.6617599 C27.0141621,16.6173599 27.2330232,16.5947999 27.3764399,16.5947999 C27.8953914,16.5947999 28.1552287,16.9425599 28.1552287,17.6373599 C28.1552287,17.7088799 28.1479976,17.8156799 28.1337765,17.9582399 C28.1195553,18.1012799 28.1123242,18.2080799 28.1123242,18.2788799 C28.097621,18.4219199 28.0833999,18.9739199 28.0691787,19.9364399 C28.0549576,20.6674799 28.0477265,21.4160399 28.0477265,22.1823599" id="Fill-4" fill="#5C6C7D"></path>
                    <path d="M36.1289561,17.3841599 L36.1289561,18.1454399 C37.2030146,16.7911199 38.6347712,16.1138399 40.424708,16.1138399 C41.3912643,16.1138399 42.3040694,16.3591199 43.1633644,16.8489599 C44.0224184,17.3392799 44.6037983,17.9493599 44.9084684,18.6801599 C45.1589053,19.2863999 45.2842443,20.0793359 45.2842443,21.0592559 L45.2842443,26.1386159 C45.2842443,26.9051759 45.2931626,27.3594959 45.3112403,27.5018159 C45.4004238,28.1080559 45.6421834,28.4109359 46.036037,28.4109359 C46.1972904,28.4109359 46.4072332,28.3888559 46.6670705,28.3439759 C46.9261847,28.2995759 47.1100955,28.2772559 47.2173567,28.2772559 C47.4497159,28.2772559 47.6512224,28.3574159 47.8213941,28.5179759 C47.9913248,28.6782959 48.0764107,28.8746159 48.0764107,29.1059759 C48.0764107,29.3733359 47.9691495,29.5962959 47.754386,29.7743759 C47.5396225,29.9522159 47.2797852,30.0414959 46.9755972,30.0414959 C46.7249192,30.0414959 46.3132289,30.0057359 45.7407673,29.9346959 C45.1678236,29.8636559 44.6305534,29.8278959 44.1296796,29.8278959 C43.6642382,29.8278959 43.279544,29.8456559 42.9753559,29.8811759 C42.0801465,29.9882159 41.6060278,30.0414959 41.5522766,30.0414959 C40.8361573,30.0414959 40.4784592,29.7299759 40.4784592,29.1059759 C40.4784592,28.5537359 40.7884321,28.2772559 41.409342,28.2772559 C41.5554101,28.2772559 41.7193149,28.2952559 41.9017795,28.3305359 C42.2483899,28.4020559 42.4672511,28.4378159 42.5588449,28.4378159 C42.9968082,28.4378159 43.233747,27.9477359 43.2706256,26.9673359 L43.2706256,21.9414959 C43.2706256,20.9973359 43.2257928,20.3466959 43.1368504,19.9898159 C42.976079,19.3130399 42.6282634,18.7871999 42.0938856,18.4127999 C41.5052745,18.0028799 40.8366394,17.7981599 40.0882211,17.7981599 C38.6615263,17.7981599 37.6361571,18.3057599 37.0125958,19.3216799 C36.584515,20.0166959 36.3704747,21.2020559 36.3704747,22.8772559 L36.3704747,26.4326159 C36.3704747,27.2171759 36.4244668,27.7516559 36.5317281,28.0367759 C36.6392303,28.3218959 36.8359161,28.4644559 37.1225084,28.4644559 C37.2654431,28.4644559 37.4621288,28.4334959 37.7130478,28.3706159 C37.9634847,28.3086959 38.1693298,28.2772559 38.3305832,28.2772559 C38.8852081,28.2772559 39.1628821,28.5760559 39.1628821,29.1726959 C39.1628821,29.7520559 38.8047019,30.0414959 38.0888236,30.0414959 C37.9454069,30.0414959 37.4802065,29.9882159 36.6927404,29.8811759 C36.2988868,29.8278959 35.8604415,29.8010159 35.3771634,29.8010159 C35.0013875,29.8010159 34.5000317,29.8370159 33.8738189,29.9080559 C33.0858707,29.9970959 32.6387481,30.0414959 32.5312458,30.0414959 C31.7796941,30.0414959 31.4036772,29.7388559 31.4036772,29.1326159 C31.4036772,28.5623759 31.6950903,28.2772559 32.2786396,28.2772559 C32.3697514,28.2772559 32.5384769,28.3038959 32.7845751,28.3574159 C33.0306734,28.4109359 33.2721919,28.4378159 33.5091307,28.4378159 C34.0562835,28.4378159 34.3385372,27.9208559 34.356856,26.8871759 L34.356856,19.7493599 C34.3204595,19.1438399 34.2428458,18.7293599 34.1247379,18.5063999 C34.0059069,18.2836799 33.8007849,18.1720799 33.5091307,18.1720799 C33.3816225,18.1720799 33.1945782,18.1946399 32.948721,18.2392799 C32.7023817,18.2836799 32.5158195,18.3057599 32.3883112,18.3057599 C31.7317278,18.3057599 31.4036772,18.0208799 31.4036772,17.4503999 C31.4036772,16.8623999 31.8064491,16.5683999 32.611752,16.5683999 C32.7192542,16.5683999 32.8086788,16.5775199 32.8802666,16.5950399 L33.8738189,16.7018399 C34.1599292,16.7018399 34.4106071,16.6795199 34.6253706,16.6351199 C35.090571,16.5907199 35.3323306,16.5683999 35.3504083,16.5683999 C35.8693598,16.5683999 36.1289561,16.8400799 36.1289561,17.3841599" id="Fill-5" fill="#5C6C7D"></path>
                    <path d="M52.0766519,15.1780799 C51.6647206,15.1780799 51.3116022,15.0309599 51.0160915,14.7369599 C50.7208218,14.44296 50.5730664,14.09112 50.5730664,13.68096 C50.5730664,13.27128 50.7208218,12.92352 51.0160915,12.6384 C51.3116022,12.35328 51.6647206,12.21072 52.0766519,12.21072 C52.4883422,12.21072 52.8417017,12.35328 53.1372124,12.6384 C53.432482,12.92352 53.5802374,13.27128 53.5802374,13.68096 C53.5802374,14.09112 53.432482,14.44296 53.1372124,14.7369599 C52.8417017,15.0309599 52.4883422,15.1780799 52.0766519,15.1780799 M53.4727351,22.1823599 L53.4727351,25.6573199 C53.4727351,26.5489199 53.4816535,27.0742799 53.4994902,27.2345999 C53.5889147,28.0366799 53.8306743,28.4377199 54.2245279,28.4377199 C54.3139524,28.4377199 54.5373932,28.3933199 54.8958144,28.3037999 C54.9849979,28.2685199 55.1194963,28.2505199 55.2985864,28.2505199 C55.9783092,28.2505199 56.3186527,28.5445199 56.3186527,29.1327599 C56.3186527,29.3825999 56.2063297,29.5961999 55.9819248,29.7742799 C55.7575198,29.9523599 55.474784,30.0416399 55.1332354,30.0416399 C54.8459199,30.0416399 54.410367,30.0015599 53.8268177,29.9213999 C53.2427863,29.8412399 52.8074745,29.8011599 52.520159,29.8011599 C52.0527893,29.8011599 51.5321505,29.8369199 50.9572786,29.9079599 C50.2568266,29.9969999 49.7899389,30.0416399 49.5566156,30.0416399 C48.8380859,30.0416399 48.4789416,29.7387599 48.4789416,29.1327599 C48.4789416,28.5445199 48.7860221,28.2505199 49.400183,28.2505199 C49.5445638,28.2505199 49.7564349,28.2771599 50.0365193,28.3306799 C50.3163626,28.3839599 50.5287157,28.4110799 50.6733376,28.4110799 C51.1067212,28.4110799 51.3684868,27.8408399 51.4591165,26.7001199 L51.4591165,19.8561599 C51.3684868,18.7334399 51.0978028,18.1720799 50.6465826,18.1720799 C50.5017196,18.1720799 50.2985259,18.2032799 50.0365193,18.2656799 C49.7747536,18.3283199 49.5807193,18.3592799 49.4544162,18.3592799 C48.8040998,18.3592799 48.4789416,18.0743999 48.4789416,17.5036799 C48.4789416,16.8979199 48.8725541,16.5947999 49.6602613,16.5947999 C50.0001227,16.5947999 50.2416413,16.6039199 50.385058,16.6216799 C50.9577606,16.6929599 51.3248592,16.7284799 51.4858715,16.7284799 C51.6290472,16.7284799 51.8483904,16.7061599 52.1436601,16.6617599 C52.4391708,16.6173599 52.6580319,16.5947999 52.8014486,16.5947999 C53.3204001,16.5947999 53.5802374,16.9425599 53.5802374,17.6373599 C53.5802374,17.7088799 53.5730063,17.8156799 53.5587852,17.9582399 C53.544564,18.1012799 53.5373329,18.2080799 53.5373329,18.2788799 C53.5226297,18.4219199 53.5084085,18.9739199 53.4941874,19.9364399 C53.4799662,20.6674799 53.4727351,21.4160399 53.4727351,22.1823599" id="Fill-6" fill="#5C6C7D"></path>
                    <path d="M65.3934347,14.13576 C65.3934347,13.8864 65.4828592,13.66368 65.6617083,13.46736 C65.3572792,13.18224 64.9099155,13.03968 64.3196172,13.03968 C63.5499878,13.03968 62.9454683,13.28472 62.507264,13.7748 C62.0683366,14.26512 61.8494755,14.9467199 61.8494755,15.8198399 L61.8494755,16.3007999 C61.8494755,16.5328799 61.9656551,16.6485599 62.1984963,16.6485599 L64.2928622,16.6485599 C64.8831605,16.6485599 65.1786712,16.9694399 65.1786712,17.6107199 C65.1786712,18.2522399 64.8831605,18.5733599 64.2928622,18.5733599 L62.3057575,18.5733599 C62.0013285,18.5733599 61.8494755,18.7336799 61.8494755,19.0543199 L61.8494755,26.5396079 C61.8494755,27.1991279 61.8581528,27.5821679 61.8762305,27.6892079 C61.9656551,28.1704079 62.1893369,28.4108879 62.5475171,28.4108879 C62.6367006,28.4108879 62.8603824,28.3667279 63.2185626,28.2772079 C63.4689995,28.2416879 63.6483306,28.2236879 63.7555919,28.2236879 C64.3639679,28.2236879 64.668397,28.5179279 64.668397,29.1059279 C64.668397,29.7301679 64.3012984,30.0414479 63.5678245,30.0414479 C63.2631544,30.0414479 62.8025337,30.0056879 62.1849982,29.9346479 C61.5674628,29.8636079 61.1063601,29.8278479 60.8024131,29.8278479 C60.2653838,29.8278479 59.7821057,29.8544879 59.3525787,29.9080079 C58.6545371,29.9970479 58.2069324,30.0414479 58.0100056,30.0414479 C57.2403762,30.0414479 56.855682,29.7301679 56.855682,29.1059279 C56.855682,28.8745679 56.9494451,28.6696079 57.1374536,28.4910479 C57.325462,28.3132079 57.5445642,28.2236879 57.7952421,28.2236879 C57.9740912,28.2236879 58.1753566,28.2551279 58.3992795,28.3172879 C58.6229613,28.3801679 58.8244678,28.4108879 59.0035579,28.4108879 C59.3431783,28.4108879 59.5581828,28.1970479 59.6478484,27.7693679 C59.7372729,27.3414479 59.790783,26.3082479 59.8088608,24.6683279 L59.8088608,19.0543199 C59.8088608,18.7336799 59.6490536,18.5733599 59.3301623,18.5733599 L58.0008462,18.5733599 C57.3804183,18.5733599 57.0704454,18.2435999 57.0704454,17.5840799 C57.0704454,16.9605599 57.3924702,16.6485599 58.0367606,16.6485599 L59.5673422,16.6485599 C59.7997014,16.6485599 59.916363,16.5328799 59.916363,16.3007999 L59.916363,15.8198399 C59.916363,14.412 60.2921389,13.33368 61.0439316,12.58512 C61.7957244,11.83656 62.8603824,11.46216 64.239111,11.46216 C65.3666796,11.46216 66.2700843,11.68944 66.9507713,12.144 C67.6304941,12.59856 67.9708376,13.20912 67.9708376,13.9752 C67.9708376,14.36736 67.8452576,14.6836799 67.5948207,14.9241599 C67.3439018,15.1646399 67.0312775,15.2851199 66.6550195,15.2851199 C66.2968393,15.2851199 65.9974721,15.1739999 65.7559535,14.9507999 C65.514435,14.7283199 65.3934347,14.4564 65.3934347,14.13576" id="Fill-7" fill="#5C6C7D"></path>
                    <path d="M70.9777675,19.1344799 L74.0654447,28.1702159 L77.3406482,19.2683999 C77.4303138,19.0190399 77.4751466,18.8229599 77.4751466,18.6801599 C77.4751466,18.3775199 77.2690604,18.2255999 76.8576111,18.2255999 C76.6428476,18.2255999 76.4724349,18.2435999 76.3473369,18.2791199 C76.0609856,18.3151199 75.8729772,18.3326399 75.7835526,18.3326399 C75.1927723,18.3326399 74.8977436,18.0479999 74.8977436,17.4772799 C74.8977436,16.8712799 75.2821968,16.5683999 76.0520673,16.5683999 C76.1595695,16.5683999 76.3381775,16.5863999 76.5890965,16.6216799 L77.5556527,16.7553599 C77.8060896,16.7911199 78.0743632,16.8091199 78.3611966,16.8091199 C78.6653846,16.8091199 79.1127483,16.7687999 79.7035287,16.6886399 C80.2940681,16.6084799 80.7414317,16.5683999 81.0461018,16.5683999 C81.8152492,16.5683999 82.2004255,16.8669599 82.2004255,17.4638399 C82.2004255,18.0431999 81.9051558,18.3326399 81.3143754,18.3326399 C81.1352853,18.3326399 81.001028,18.3151199 80.9116035,18.2791199 C80.6787623,18.2255999 80.5177499,18.1989599 80.4283254,18.1989599 C80.0882229,18.1989599 79.7392021,18.6535199 79.381263,19.5623999 L75.7300425,28.6514159 C74.9244987,30.6652559 74.1635465,32.1268559 73.4476682,33.0357359 C72.2304341,34.5863759 70.7092529,35.3613359 68.8836427,35.3613359 C67.7915065,35.3613359 66.8741217,35.0848559 66.1317294,34.5326159 C65.389096,33.9801359 65.0171767,33.3117359 65.0171767,32.5278959 C65.0171767,31.9751759 65.1784301,31.5254159 65.5006959,31.1778959 C65.8227206,30.8301359 66.2430882,30.6566159 66.7625218,30.6566159 C67.1742121,30.6566159 67.5143145,30.7768559 67.7828292,31.0173359 C68.0511028,31.2580559 68.1856011,31.5561359 68.1856011,31.9127759 C68.1856011,32.4830159 67.9257638,32.8487759 67.4070533,33.0090959 C67.6753269,33.4007759 68.1856011,33.5970959 68.9371528,33.5970959 C69.8858723,33.5970959 70.7403466,33.2450159 71.5012988,32.5410959 C72.2617688,31.8369359 72.6423654,31.0482959 72.6423654,30.1754159 C72.6423654,29.7299759 72.4006058,28.9012559 71.9173277,27.6892559 L68.9641489,20.2574159 L68.6421242,19.4018399 C68.3374541,18.5999999 67.9884333,18.1989599 67.5948207,18.1989599 C67.4875595,18.1989599 67.2949714,18.2212799 67.0175384,18.2659199 C66.7398644,18.3103199 66.5564356,18.3326399 66.4672521,18.3326399 C65.8405573,18.3326399 65.527692,18.0479999 65.527692,17.4772799 C65.527692,16.8712799 65.9391412,16.5683999 66.7625218,16.5683999 C67.0310364,16.5683999 67.2366405,16.5789599 67.3800572,16.5993599 L68.4538747,16.7553599 L68.6688792,16.7553599 C68.7937361,16.7733599 68.9012384,16.7819999 68.9909039,16.7819999 C69.6354355,16.7819999 70.3240766,16.7414399 71.0582737,16.6595999 C71.6128986,16.5988799 71.9799972,16.5683999 72.1590873,16.5683999 C72.91088,16.5683999 73.2866559,16.8623999 73.2866559,17.4503999 C73.2866559,18.0386399 72.9465534,18.3326399 72.2665895,18.3326399 C72.1590873,18.3326399 71.9886745,18.3151199 71.7563153,18.2791199 C71.5237151,18.2435999 71.3537844,18.2255999 71.2462822,18.2255999 C70.9953632,18.2255999 70.8705063,18.3506399 70.8705063,18.5999999 C70.8705063,18.7427999 70.9059387,18.9206399 70.9777675,19.1344799" id="Fill-8" fill="#5C6C7D"></path>
                </g>
            </g>
        </g>
    </g>
</svg>