<svg width="104" height="15" viewBox="0 0 104 15" fill="none" xmlns="http://www.w3.org/2000/svg">
<g id="branding/voormedia-logo-white">
<path id="Fill-1" fill-rule="evenodd" clip-rule="evenodd" d="M49.1998 5.41173C49.4665 4.96831 49.8453 4.58382 50.3364 4.25795C50.8276 3.93239 51.4663 3.76953 52.2524 3.76953C52.6455 3.76953 53.0137 3.8182 53.3578 3.91509C53.7013 4.01198 53.9858 4.17132 54.2102 4.3931C54.4347 4.61489 54.5927 4.79137 54.6839 4.92285C54.7751 5.05448 54.8698 5.238 54.9683 5.47356C55.052 5.25208 55.129 5.09627 55.1988 5.00596C55.2686 4.91596 55.4886 4.68729 55.859 4.32025C56.2291 3.95305 56.9384 3.76953 57.9863 3.76953C58.475 3.76953 58.8836 3.82815 59.2123 3.94525C59.5406 4.06249 59.8128 4.2278 60.0295 4.44132C60.2463 4.65499 60.4207 4.93065 60.5535 5.26815C60.6861 5.60596 60.7527 6.05703 60.7527 6.62183V11.7478H61.6579V14.7325H56.8431V8.20509C56.8431 7.81815 56.8008 7.52137 56.7166 7.31382C56.6324 7.10672 56.4144 7.00295 56.0633 7.00295C55.9228 7.00295 55.8 7.02025 55.6947 7.05499C55.5894 7.08958 55.4874 7.15877 55.3889 7.26208C55.2906 7.36555 55.2099 7.50729 55.1467 7.68667C55.0835 7.86637 55.052 8.12198 55.052 8.45351V11.7478H55.7645V14.7325H51.2194V8.41218C51.2194 7.96999 51.1693 7.62484 51.0701 7.37611C50.9707 7.12739 50.7294 7.00295 50.3461 7.00295C50.1188 7.00295 49.9057 7.08606 49.7071 7.25167C49.5934 7.37611 49.5155 7.55244 49.4728 7.78019C49.4299 8.00795 49.409 8.25315 49.409 8.51565V11.7478H50.1216V14.7325H44.6133V11.7478H45.4992V7.00295H44.6133V4.01826H49.1161L49.1998 5.41173Z" fill="white"/>
<path id="Fill-2" fill-rule="evenodd" clip-rule="evenodd" d="M72.2147 12.5057C72.3754 12.0928 72.5117 11.6044 72.6236 11.0399H68.8819C68.826 11.3972 68.711 11.7096 68.5371 11.9774C68.3631 12.2453 68.0325 12.3792 67.545 12.3792C66.9461 12.3792 66.5666 12.164 66.4066 11.7332C66.2465 11.3024 66.1664 10.7589 66.1664 10.1024H72.7706C72.7706 8.84688 72.6516 7.82948 72.4139 7.04994C72.1762 6.27025 71.8232 5.64928 71.355 5.18718C70.8864 4.72494 70.327 4.37336 69.6769 4.13183C69.027 3.8903 68.2895 3.76953 67.4646 3.76953C66.2759 3.76953 65.2345 4.05897 64.3398 4.63708C63.4448 5.21519 62.8787 5.89326 62.641 6.67111C62.4034 7.44897 62.267 7.99601 62.2321 8.31269C62.1973 8.62953 62.1797 8.99428 62.1797 9.40708C62.1797 11.3621 62.6829 12.7769 63.6895 13.651C64.696 14.5251 66.0033 14.9621 67.6114 14.9621C68.3385 14.9621 69.0233 14.8623 69.6665 14.6629C70.3096 14.4632 70.8548 14.157 71.3023 13.7442C71.7498 13.3314 72.054 12.9185 72.2147 12.5057ZM68.8714 7.66846C68.8784 7.80025 68.8819 7.9357 68.8819 8.07438H66.2626C66.2626 7.50514 66.3744 7.08851 66.5979 6.82479C66.8212 6.56106 67.1426 6.42897 67.5618 6.42897C67.8134 6.42897 68.0541 6.49509 68.2846 6.62688C68.5151 6.75897 68.6687 6.93239 68.7457 7.14759C68.8224 7.36295 68.8642 7.53652 68.8714 7.66846Z" fill="white"/>
<path id="Fill-3" fill-rule="evenodd" clip-rule="evenodd" d="M84.3128 11.7473V0.133789H79.4595V3.11848H80.4032V5.14654C80.0667 4.71813 79.7055 4.3794 79.3202 4.13068C78.9344 3.88195 78.3911 3.75767 77.6899 3.75767C76.3999 3.75767 75.387 4.25986 74.651 5.2641C73.9148 6.26818 73.5469 7.60241 73.5469 9.26665C73.5469 10.3399 73.6832 11.2786 73.9564 12.0833C74.2296 12.8881 74.6675 13.5687 75.2699 14.126C75.8725 14.6833 76.6918 14.9616 77.7284 14.9616C78.2609 14.9616 78.7267 14.8829 79.126 14.7266C79.5251 14.5699 79.8579 14.3619 80.1241 14.1031L80.6286 13.4692L80.754 14.732H85.1861V11.7473H84.3128ZM77.8209 7.44277C78.0381 6.8942 78.4413 6.61976 79.0307 6.61976C79.6195 6.61976 80.005 6.87353 80.1873 7.38124C80.3697 7.88879 80.4609 8.49231 80.4609 9.19195C80.4609 10.0424 80.3451 10.7351 80.1137 11.2702C79.8822 11.8053 79.4863 12.0726 78.9253 12.0726C78.4344 12.0726 78.0734 11.8668 77.842 11.4553C77.6106 11.0438 77.495 10.399 77.495 9.52103C77.495 8.68425 77.6036 7.99165 77.8209 7.44277Z" fill="white"/>
<path id="Fill-4" fill-rule="evenodd" clip-rule="evenodd" d="M91.3695 2.88947H87.1208V0.115234H91.3695V2.88947ZM91.3695 11.7479V4.0183H86.5547V7.00299H87.4599V11.7479H86.5547V14.7326H92.2939V11.7479H91.3695Z" fill="white"/>
<path id="Fill-5" fill-rule="evenodd" clip-rule="evenodd" d="M103.955 14.7321V11.7474H103.056V7.59383C103.056 7.09791 102.996 6.64316 102.878 6.22975C102.759 5.81663 102.5 5.4101 102.102 5.01061C101.704 4.61128 101.148 4.30133 100.436 4.08061C99.723 3.86036 98.9756 3.75 98.193 3.75C97.3267 3.75 96.4884 3.90903 95.6779 4.22648C94.8674 4.54423 94.3364 4.95536 94.0848 5.45939C93.8334 5.96342 93.6831 6.34668 93.6345 6.60918C93.5853 6.87168 93.561 7.16878 93.561 7.5H97.2395C97.2395 7.43036 97.2566 7.27347 97.2916 7.02918C97.3264 6.7852 97.4204 6.57918 97.5732 6.41189C97.7261 6.24444 97.9556 6.16071 98.2618 6.16071C98.4983 6.16071 98.7 6.23005 98.867 6.36842C99.0337 6.50725 99.1311 6.64913 99.1588 6.79454C99.1865 6.9401 99.2144 7.0474 99.2424 7.11643V7.38673V8.09311H98.6758C97.8639 8.09311 97.1151 8.14485 96.4294 8.24801C95.7436 8.35117 95.1174 8.59179 94.5507 8.97C93.9837 9.34806 93.613 9.78459 93.4382 10.2796C93.263 10.7746 93.1758 11.2697 93.1758 11.7644C93.1758 12.7821 93.459 13.5695 94.026 14.1265C94.5925 14.6835 95.3656 14.9617 96.3454 14.9617C97.1712 14.9617 97.8079 14.8149 98.2558 14.522C98.7035 14.2287 99.0673 13.8843 99.3472 13.4885L99.4309 14.7321H103.955ZM98.7983 9.96811H99.2424V10.9953C99.2424 11.1872 99.2247 11.3617 99.1894 11.5194C99.1543 11.6769 99.0874 11.8309 98.9888 11.9815C98.8901 12.1322 98.7667 12.2521 98.6186 12.3412C98.4705 12.4303 98.2764 12.4745 98.037 12.4745C97.7408 12.4745 97.5082 12.3788 97.339 12.1869C97.17 11.9953 97.0854 11.7214 97.0854 11.3651C97.0854 11.0637 97.1558 10.7968 97.2966 10.564C97.4375 10.3313 97.6385 10.1738 97.8994 10.0916C98.1604 10.0094 98.4601 9.96811 98.7983 9.96811Z" fill="white"/>
<path id="Fill-7" fill-rule="evenodd" clip-rule="evenodd" d="M5.52741 4.01758V6.88748H4.66074L5.87407 11.6132L7.08741 6.88748H6.24V4.01758H11.2474V7.00227H10.3615L7.74099 14.7319H3.46451L0.885926 7.00227H0V4.01758H5.52741Z" fill="white"/>
<path id="Fill-9" fill-rule="evenodd" clip-rule="evenodd" d="M15.8109 3.95226C15.3354 4.04854 14.8599 4.22073 14.3844 4.46823C13.5172 4.90889 12.881 5.51823 12.4753 6.29609C12.0696 7.07394 11.8672 8.06884 11.8672 9.28017C11.8672 10.0649 11.9613 10.8359 12.1504 11.5928C12.3391 12.3501 12.6852 12.9763 13.1885 13.4721C13.692 13.9677 14.143 14.3016 14.5415 14.4738C14.9399 14.646 15.391 14.7763 15.8945 14.866C16.3979 14.9554 16.9014 15.0002 17.4051 15.0002C17.8944 15.0002 18.3873 14.9554 18.8839 14.866C19.3805 14.7763 19.8592 14.6286 20.3208 14.4221C20.7824 14.2158 21.2089 13.9094 21.6004 13.5031C21.9919 13.0971 22.282 12.6152 22.4709 12.0576C22.6596 11.5002 22.7821 11.0219 22.838 10.6224C22.894 10.223 22.922 9.82399 22.922 9.4245C22.922 7.66262 22.4567 6.28583 21.5269 5.29461C20.597 4.30323 19.2161 3.80762 17.3841 3.80762C16.8105 3.80762 16.2863 3.85598 15.8109 3.95226ZM16.4437 7.02787C16.7088 6.79445 17.023 6.67752 17.3858 6.67752C18.0557 6.67752 18.4816 6.95257 18.6629 7.50206C18.8444 8.05155 18.9353 8.65629 18.9353 9.31568C18.9353 10.0302 18.8444 10.6589 18.6629 11.2015C18.4816 11.7445 18.0557 12.0155 17.3858 12.0155C17.0507 12.0155 16.7888 11.9402 16.6005 11.789C16.4121 11.6376 16.2514 11.435 16.119 11.1809C15.9862 10.9268 15.9025 10.6586 15.8677 10.377C15.8327 10.0954 15.8153 9.75542 15.8153 9.3567C15.8153 8.88971 15.8535 8.45364 15.9303 8.04818C16.007 7.64287 16.1782 7.30292 16.4437 7.02787Z" fill="white"/>
<path id="Fill-10" fill-rule="evenodd" clip-rule="evenodd" d="M27.6175 3.95226C27.142 4.04854 26.6666 4.22073 26.1911 4.46823C25.3238 4.90889 24.6876 5.51823 24.2821 6.29609C23.8764 7.07394 23.6738 8.06884 23.6738 9.28017C23.6738 10.0649 23.7681 10.8359 23.957 11.5928C24.1458 12.3501 24.4918 12.9763 24.9953 13.4721C25.4987 13.9677 25.9498 14.3016 26.3482 14.4738C26.7467 14.646 27.1977 14.7763 27.7012 14.866C28.2047 14.9554 28.708 15.0002 29.2119 15.0002C29.7011 15.0002 30.1941 14.9554 30.6905 14.866C31.1871 14.7763 31.6658 14.6286 32.1276 14.4221C32.5892 14.2158 33.0155 13.9094 33.407 13.5031C33.7985 13.0971 34.0886 12.6152 34.2777 12.0576C34.4663 11.5002 34.5887 11.0219 34.6447 10.6224C34.7008 10.223 34.7286 9.82399 34.7286 9.4245C34.7286 7.66262 34.2635 6.28583 33.3337 5.29461C32.4038 4.30323 31.0229 3.80762 29.1908 3.80762C28.6171 3.80762 28.093 3.85598 27.6175 3.95226ZM28.2503 7.02787C28.5155 6.79445 28.8296 6.67752 29.1926 6.67752C29.8624 6.67752 30.2882 6.95257 30.4697 7.50206C30.6512 8.05155 30.742 8.65629 30.742 9.31568C30.742 10.0302 30.6512 10.6589 30.4697 11.2015C30.2882 11.7445 29.8624 12.0155 29.1926 12.0155C28.8573 12.0155 28.5956 11.9402 28.4071 11.789C28.2187 11.6376 28.058 11.435 27.9257 11.1809C27.793 10.9268 27.7093 10.6586 27.6744 10.377C27.6395 10.0954 27.622 9.75542 27.622 9.3567C27.622 8.88971 27.6602 8.45364 27.7369 8.04818C27.8136 7.64287 27.985 7.30292 28.2503 7.02787Z" fill="white"/>
<path id="Fill-11" fill-rule="evenodd" clip-rule="evenodd" d="M39.7858 5.88684C39.9393 5.3499 40.1909 4.88505 40.54 4.4923C40.889 4.0997 41.5176 3.90332 42.4256 3.90332C42.7746 3.90332 43.1171 3.94159 43.4523 4.01812V7.45755C43.1695 7.39893 42.9642 7.36572 42.837 7.35822C42.7097 7.35102 42.6037 7.3472 42.5188 7.3472C42.1228 7.3472 41.7657 7.39893 41.4472 7.5024C41.1289 7.60572 40.8602 7.76398 40.6411 7.97735C40.422 8.19087 40.2806 8.44587 40.2168 8.74174C40.153 9.03807 40.1214 9.46174 40.1214 10.0123V11.7477H41.354V14.7324H35.4414V11.7477H36.3466V7.00281H35.4414V4.01812H39.6601L39.7858 5.88684Z" fill="white"/>
</g>
</svg>
